<svg width="50" height="24" viewBox="0 0 50 24" fill="none" xmlns="http://www.w3.org/2000/svg">
<g id="apple pay">
<g id="background">
<path d="M16.1028 6.95024C15.9249 7.10464 15.7456 7.25763 15.5701 7.41488C14.9491 7.9716 14.4828 8.61899 14.3184 9.42645C14.2001 9.95678 14.2041 10.5051 14.3301 11.0338C14.4561 11.5625 14.7011 12.0593 15.0485 12.4898C15.4064 12.9495 15.833 13.3313 16.4009 13.5523C16.4674 13.5778 16.5347 13.6004 16.6161 13.6302C16.5414 13.8208 16.4771 14.0085 16.3972 14.1912C15.9347 15.2536 15.3332 16.2367 14.512 17.0896C14.3567 17.2473 14.1891 17.3936 14.0105 17.5273C13.4128 17.9877 12.7403 18.1648 11.9819 17.9523C11.6038 17.8475 11.2302 17.7299 10.8535 17.62C10.4699 17.4971 10.07 17.4256 9.66549 17.4076C9.15888 17.3963 8.69411 17.5401 8.22336 17.7029C7.871 17.8348 7.51071 17.9466 7.14437 18.038C6.56676 18.1691 6.04371 18.0004 5.56549 17.693C5.09487 17.3776 4.68959 16.9826 4.36993 16.5279C3.53704 15.4162 2.91152 14.1774 2.52057 12.8653C2.16974 11.701 2.08541 10.479 2.27323 9.28125C2.4421 8.21385 2.86204 7.25056 3.6526 6.45443C4.47455 5.62996 5.48703 5.29069 6.67213 5.4026C7.26243 5.45784 7.82584 5.62004 8.39074 5.77587C8.62611 5.84103 8.86671 5.88991 9.10508 5.94728C9.43888 6.01858 9.78689 6.00218 10.1116 5.89982C10.5771 5.77092 11.0366 5.62429 11.4984 5.49468C12.178 5.293 12.8994 5.25214 13.5996 5.37567C14.5202 5.54426 15.248 6.01315 15.857 6.67046C15.9317 6.75262 16.0064 6.8362 16.0812 6.91978C16.0893 6.92929 16.0966 6.93949 16.1028 6.95024Z" fill="#ACBBBF"/>
<path d="M12.6414 1.57617C12.6611 1.759 12.6696 1.94276 12.6668 2.12652C12.6034 3.07031 12.1842 3.96102 11.4854 4.63604C11.1663 4.95335 10.8129 5.23172 10.378 5.39533C10.0044 5.53699 9.61364 5.56391 9.21985 5.59153C9.21388 5.59153 9.20715 5.58516 9.20117 5.58233C9.25722 3.41421 10.4102 2.01178 12.6414 1.57617Z" fill="#ACBBBF"/>
<path d="M21.0176 4.15235C22.2178 3.96739 23.4323 3.8776 24.6483 3.8839C26.5163 3.8839 27.8867 4.29613 28.758 5.03773C29.562 5.69716 30.0402 6.7072 30.0402 7.94177C30.0402 9.19829 29.6487 10.1878 28.9097 10.9089C27.9076 11.9196 26.278 12.436 24.4301 12.436C23.8652 12.436 23.3437 12.4154 22.9088 12.3127V17.8757H21.0176V4.15235ZM22.9088 10.8479C23.3212 10.9513 23.8436 10.9896 24.4734 10.9896C26.7554 10.9896 28.1468 9.93917 28.1468 8.02251C28.1468 6.18872 26.7779 5.30334 24.6909 5.30334C23.8652 5.30334 23.2346 5.36496 22.9088 5.445V10.8479Z" fill="#ACBBBF"/>
<path d="M36.8616 17.8765L36.7123 16.6193H36.6472C36.0599 17.4027 34.9287 18.1032 33.4297 18.1032C31.3001 18.1032 30.2129 16.6817 30.2129 15.2389C30.2129 12.8306 32.474 11.5097 36.5382 11.5302V11.3241C36.5382 10.5003 36.299 9.01643 34.147 9.01643C33.1689 9.01643 32.1474 9.30541 31.4084 9.75873L30.9736 8.56382C31.8434 8.02763 33.1039 7.67773 34.4295 7.67773C37.647 7.67773 38.4294 9.75873 38.4294 11.7568V15.4839C38.4294 16.3495 38.4727 17.1945 38.6027 17.8744L36.8616 17.8765ZM36.5793 12.7874C34.4929 12.7463 32.1236 13.0963 32.1236 15.0327C32.1236 16.2071 32.9492 16.7639 33.928 16.7639C35.297 16.7639 36.1697 15.9394 36.4687 15.0951C36.536 14.9091 36.5726 14.7144 36.5769 14.5178L36.5793 12.7874Z" fill="#ACBBBF"/>
<path d="M40.9702 7.90117L43.2739 13.7935C43.5129 14.4529 43.7738 15.2356 43.9464 15.8334H43.9898C44.1854 15.2356 44.403 14.4735 44.6622 13.7524L46.7522 7.90117H48.7734L45.9041 15.009C44.5344 18.4294 43.6004 20.1796 42.2958 21.2519C41.3617 22.0353 40.4277 22.3442 39.9487 22.4263L39.4705 20.9021C40.0831 20.7095 40.6511 20.4077 41.1443 20.0131C41.8385 19.4675 42.389 18.7762 42.7523 17.9938C42.8398 17.8082 42.9018 17.6644 42.9018 17.561C42.9018 17.4576 42.8584 17.3138 42.771 17.0871L38.884 7.90117H40.9702Z" fill="#ACBBBF"/>
</g>
</g>
</svg>
