<svg width="49" height="20" viewBox="0 0 49 20" fill="none" xmlns="http://www.w3.org/2000/svg">
<g id="google pay" clip-path="url(#clip0_2780_77200)">
<g id="background">
<path fill-rule="evenodd" clip-rule="evenodd" d="M22.8982 15.2913V9.79024H25.7412C26.9062 9.79024 27.8896 9.40036 28.6912 8.63151L28.8835 8.43659C30.3478 6.84474 30.2516 4.36489 28.6912 2.89216C27.9109 2.11247 26.8421 1.69014 25.7412 1.7118H21.1773V15.2913H22.8982ZM22.8984 8.1227V3.37961H25.7846C26.4046 3.37961 26.9926 3.61784 27.4309 4.051C28.361 4.96064 28.3823 6.47669 27.4844 7.41882C27.0461 7.88446 26.4261 8.14435 25.7846 8.1227H22.8984ZM36.9111 6.72603C36.1735 6.04381 35.1689 5.69728 33.897 5.69728C32.2617 5.69728 31.0325 6.30371 30.2202 7.50572L31.738 8.46951C32.2937 7.6465 33.0526 7.235 34.0145 7.235C34.6238 7.235 35.2116 7.46241 35.6712 7.8739C36.1202 8.26375 36.3767 8.82686 36.3767 9.42241V9.82309C35.714 9.4549 34.8803 9.26005 33.8542 9.26005C32.6571 9.26005 31.6952 9.54157 30.9791 10.1155C30.263 10.6894 29.8995 11.4475 29.8995 12.4112C29.8782 13.2884 30.2522 14.1222 30.9149 14.6853C31.5883 15.2918 32.4434 15.595 33.4481 15.595C34.6344 15.595 35.575 15.0643 36.2912 14.0031H36.3659V15.2918H38.012V9.56326C38.012 8.36121 37.6485 7.40826 36.9111 6.72603ZM32.2406 13.5807C31.8878 13.3208 31.6741 12.8984 31.6741 12.4436C31.6741 11.9347 31.9092 11.5123 32.3689 11.1766C32.8393 10.8409 33.4272 10.6676 34.1221 10.6676C35.0842 10.6568 35.8324 10.8734 36.3669 11.3066C36.3669 12.0429 36.0783 12.6818 35.5118 13.2233C34.9986 13.743 34.3038 14.0354 33.5768 14.0354C33.0958 14.0462 32.6255 13.8839 32.2406 13.5807ZM41.7097 19.3742L47.46 6.00051H45.5895L42.9282 12.6711H42.8961L40.1706 6.00051H38.3001L42.0731 14.6961L39.9354 19.3742H41.7097Z" fill="#ACBBBF"/>
<path d="M16.9566 8.59561C16.9566 8.06499 16.9139 7.53436 16.8284 7.01458H9.5711V10.0142H13.7288C13.5578 10.978 13.0039 11.8457 12.1915 12.3871C11.4968 12.8636 10.6115 13.1357 9.57478 13.1357C7.56539 13.1357 5.86472 11.7612 5.25549 9.92039C4.93479 8.95663 4.93479 7.90996 5.25549 6.93535C5.86472 5.0836 7.56539 3.71124 9.57478 3.71124C10.6757 3.68958 11.7338 4.11192 12.5248 4.88077L14.7265 2.65C13.3264 1.32886 11.488 0.603325 9.57478 0.624983C6.66758 0.624983 4.00476 2.29513 2.7008 4.92657C1.59973 7.12486 1.59973 9.7308 2.7008 11.9291C4.00476 14.5607 6.66758 16.222 9.57478 16.222C11.6483 16.222 13.3993 15.5275 14.6712 14.3364C16.1248 12.9828 16.9566 10.978 16.9566 8.59561Z" fill="#ACBBBF"/>
</g>
</g>
<defs>
<clipPath id="clip0_2780_77200">
<rect width="47.7" height="19.8" fill="white" transform="translate(0.820312 0.100098)"/>
</clipPath>
</defs>
</svg>
