<svg width="33" height="20" viewBox="0 0 33 20" fill="none" xmlns="http://www.w3.org/2000/svg">
<g id="mastercard">
<path id="background" d="M15.661 18.0466C15.738 18.1126 15.8205 18.1786 15.9003 18.2446C14.33 19.2896 12.4463 19.9001 10.4195 19.9001C4.95253 19.9001 0.519531 15.4671 0.519531 10.0001C0.519531 4.5331 4.95253 0.100098 10.4195 0.100098C12.4463 0.100098 14.33 0.710598 15.9003 1.7556C15.8205 1.8216 15.738 1.88485 15.661 1.9536C13.329 3.9831 11.9898 6.91735 11.9898 10.0001C11.9898 13.0828 13.3263 16.0171 15.661 18.0466ZM22.657 0.100098C20.6303 0.100098 18.7465 0.710598 17.1763 1.7556C17.256 1.8216 17.3385 1.88485 17.4155 1.9536C19.7475 3.9831 21.0868 6.9146 21.0868 10.0001C21.0868 13.0856 19.7503 16.0171 17.4183 18.0466C17.3413 18.1126 17.2588 18.1786 17.179 18.2446C18.7493 19.2896 20.633 19.9001 22.6598 19.9001C28.1268 19.9001 32.5598 15.4671 32.5598 10.0001C32.5598 4.5331 28.124 0.100098 22.657 0.100098ZM16.5383 2.22035C16.4118 2.31935 16.2853 2.42385 16.1643 2.5311C14.077 4.3461 12.757 7.0191 12.757 10.0001C12.757 12.9811 14.077 15.6541 16.1643 17.4691C16.2853 17.5763 16.4118 17.6781 16.5383 17.7799C16.6648 17.6781 16.7913 17.5763 16.9123 17.4691C18.9995 15.6541 20.3195 12.9811 20.3195 10.0001C20.3195 7.0191 18.9995 4.3461 16.9123 2.5311C16.7913 2.42385 16.6648 2.3221 16.5383 2.22035Z" fill="#ACBBBF"/>
</g>
</svg>
