<svg width="81" height="20" viewBox="0 0 81 20" fill="none" xmlns="http://www.w3.org/2000/svg">
<g id="paypal" clip-path="url(#clip0_2780_77198)">
<g id="background">
<path d="M62.3742 8.92358C62.1402 10.3309 60.966 10.3309 59.8311 10.3309H59.1849L59.6385 7.70214C59.6513 7.62526 59.694 7.55518 59.7586 7.5047C59.8233 7.45421 59.9056 7.42669 59.9906 7.42714H60.2867C61.0591 7.42714 61.7902 7.42713 62.1671 7.82922C62.3908 8.07009 62.4592 8.42855 62.3742 8.92358ZM61.8793 5.24981H57.5985C57.4566 5.24963 57.3192 5.296 57.2114 5.38054C57.1035 5.46508 57.0322 5.58219 57.0104 5.71069L55.2791 15.7628C55.2707 15.8096 55.2735 15.8574 55.2873 15.9031C55.3011 15.9488 55.3256 15.9911 55.3591 16.0272C55.3926 16.0633 55.4343 16.0922 55.4813 16.1121C55.5283 16.132 55.5794 16.1422 55.6311 16.1421H57.8325C57.9322 16.1433 58.0288 16.1114 58.1049 16.0526C58.181 15.9937 58.2313 15.9117 58.2468 15.8216L58.7397 12.9767C58.7614 12.8486 58.8324 12.732 58.94 12.6479C59.0474 12.5637 59.1843 12.5175 59.3257 12.5177H60.6822C63.5029 12.5177 65.1307 11.2659 65.5553 8.78891C65.7479 7.70594 65.5553 6.85435 65.0106 6.25691C64.3997 5.60258 63.3207 5.25549 61.8876 5.25549" fill="#ACBBBF"/>
<path d="M31.8299 8.92547C31.5959 10.3327 30.4216 10.3327 29.2867 10.3327H28.6324L29.0859 7.70404C29.0988 7.62716 29.1415 7.55707 29.2061 7.50659C29.2707 7.45611 29.353 7.42858 29.4379 7.42903H29.734C30.5066 7.42903 31.2376 7.42903 31.6145 7.83111C31.8402 8.07199 31.9066 8.43045 31.8216 8.92547H31.8299ZM31.3288 5.2517H27.0542C26.9123 5.25152 26.7749 5.2979 26.667 5.38244C26.5591 5.46698 26.4878 5.58409 26.4661 5.71258L24.7347 15.7647C24.7264 15.8115 24.7291 15.8594 24.7429 15.905C24.7568 15.9506 24.7813 15.993 24.8148 16.0291C24.8483 16.0652 24.89 16.0942 24.937 16.1141C24.9839 16.1339 25.0351 16.1441 25.0868 16.144H27.1309C27.2725 16.1443 27.4097 16.0981 27.5175 16.014C27.6253 15.9298 27.6968 15.8132 27.719 15.685L28.187 12.971C28.2089 12.8426 28.2803 12.7257 28.3882 12.6416C28.4961 12.5573 28.6334 12.5114 28.7752 12.512H30.1297C32.9503 12.512 34.5781 11.2602 35.0026 8.78322C35.1952 7.70024 35.0026 6.84866 34.458 6.25123C33.8491 5.59689 32.7701 5.2498 31.337 5.2498" fill="#ACBBBF"/>
<path d="M41.274 12.5357C41.1958 13.0426 40.917 13.5055 40.4904 13.8363C40.0639 14.1671 39.5194 14.3428 38.9606 14.3299C38.7043 14.3539 38.4454 14.3206 38.2062 14.2327C37.967 14.1447 37.7548 14.0049 37.5877 13.8252C37.4206 13.6455 37.3037 13.4313 37.247 13.2011C37.1904 12.9708 37.1957 12.7314 37.2625 12.5034C37.34 11.998 37.6158 11.5356 38.0386 11.203C38.4613 10.8703 39.0018 10.6901 39.5592 10.6959C39.8142 10.6836 40.069 10.7231 40.3053 10.8117C40.5416 10.9002 40.7536 11.0356 40.926 11.208C41.0867 11.3924 41.2011 11.607 41.2612 11.8364C41.3213 12.0658 41.3257 12.3046 41.274 12.5357ZM44.1319 8.88087H42.0899C42.0049 8.88042 41.9227 8.90796 41.8581 8.95844C41.7934 9.00893 41.7507 9.079 41.7378 9.15593L41.6467 9.68126L41.5038 9.49163C41.0606 8.90174 40.0707 8.70449 39.0808 8.70449C36.8151 8.70449 34.8808 10.2768 34.5039 12.4807C34.3092 13.5826 34.5868 14.6333 35.2681 15.3674C35.8894 16.0407 36.7861 16.3156 37.8506 16.3156C38.3783 16.3202 38.9016 16.2276 39.3894 16.0431C39.8772 15.8587 40.3194 15.5863 40.69 15.2422L40.5967 15.7637C40.5886 15.8106 40.5918 15.8585 40.6058 15.9041C40.6199 15.9498 40.6446 15.9922 40.6783 16.0282C40.7119 16.0642 40.7538 16.0931 40.8008 16.113C40.8479 16.1328 40.899 16.1431 40.9509 16.1431H42.7961C42.9378 16.1434 43.0749 16.0972 43.1827 16.013C43.2906 15.9289 43.3621 15.8122 43.3843 15.6841L44.4943 9.25448C44.5024 9.20768 44.4993 9.15971 44.4852 9.11408C44.4711 9.06844 44.4464 9.02613 44.4127 8.99008C44.3791 8.95402 44.3373 8.92508 44.2902 8.90525C44.2432 8.88541 44.1919 8.87515 44.1402 8.87519" fill="#ACBBBF"/>
<path d="M71.823 12.5357C71.7449 13.0429 71.4658 13.5061 71.0387 13.8369C70.6118 14.1679 70.0668 14.3433 69.5077 14.3299C69.2514 14.3534 68.9928 14.3198 68.7538 14.2318C68.5149 14.1436 68.3028 14.0039 68.1359 13.8242C67.9689 13.6447 67.852 13.4307 67.7951 13.2006C67.7384 12.9706 67.7432 12.7314 67.8095 12.5034C67.8875 11.9978 68.1638 11.5354 68.5869 11.2028C69.0099 10.8702 69.5507 10.69 70.1082 10.6959C70.3632 10.6839 70.6179 10.7235 70.8542 10.812C71.0905 10.9006 71.3025 11.0358 71.4751 11.208C71.6358 11.3925 71.7502 11.607 71.8103 11.8364C71.8704 12.0658 71.8748 12.3046 71.823 12.5357ZM74.681 8.88087H72.6308C72.5458 8.88042 72.4634 8.90796 72.3988 8.95844C72.3342 9.00893 72.2915 9.079 72.2787 9.15593L72.1875 9.68126L72.0446 9.49163C71.5994 8.90174 70.6095 8.70449 69.6216 8.70449C67.3559 8.70449 65.4217 10.2768 65.0447 12.4807C64.848 13.5826 65.1276 14.6333 65.8089 15.3674C66.4302 16.0407 67.327 16.3156 68.3914 16.3156C68.9189 16.3207 69.4421 16.2283 69.9296 16.0438C70.417 15.8594 70.8589 15.5867 71.2286 15.2422L71.1376 15.7637C71.1295 15.8106 71.1325 15.8585 71.1467 15.9041C71.1607 15.9498 71.1854 15.9922 71.2191 16.0282C71.2528 16.0642 71.2946 16.0931 71.3416 16.113C71.3887 16.1328 71.4399 16.1431 71.4917 16.1431H73.3369C73.4786 16.1434 73.6157 16.0972 73.7235 16.013C73.8314 15.9289 73.9028 15.8122 73.925 15.6841L75.033 9.25448C75.0415 9.20777 75.0386 9.15989 75.0249 9.11426C75.011 9.06859 74.9865 9.02623 74.953 8.99013C74.9195 8.95404 74.8778 8.92505 74.8308 8.9052C74.7838 8.88535 74.7327 8.87511 74.681 8.87519" fill="#ACBBBF"/>
<path d="M55.0553 8.88066H52.9844C52.8872 8.8807 52.7914 8.9025 52.7054 8.94414C52.6196 8.98579 52.5461 9.04604 52.4914 9.11961L49.6583 12.9622L48.453 9.27703C48.4168 9.16461 48.3416 9.06589 48.2389 8.99579C48.1363 8.92569 48.0116 8.88796 47.8835 8.88825H45.8581C45.8013 8.88814 45.7453 8.90047 45.6947 8.92422C45.6442 8.94796 45.6006 8.98243 45.5675 9.02474C45.5345 9.06707 45.513 9.11601 45.5048 9.16749C45.4966 9.21897 45.502 9.27153 45.5205 9.32067L47.7882 15.4221L45.6551 18.1798C45.6171 18.2286 45.5945 18.286 45.5897 18.3459C45.5849 18.4056 45.5982 18.4655 45.6282 18.5188C45.6582 18.572 45.7036 18.6168 45.7595 18.648C45.8154 18.6792 45.8796 18.6957 45.9451 18.6957H48.0056C48.1017 18.6957 48.1962 18.6745 48.2812 18.6339C48.3664 18.5933 48.4394 18.5344 48.4944 18.4624L55.3452 9.39466C55.3821 9.34542 55.4037 9.288 55.4076 9.22843C55.4115 9.16885 55.3976 9.10935 55.3673 9.05649C55.337 9.00361 55.2917 8.9593 55.2359 8.92832C55.1802 8.89733 55.1164 8.88086 55.0511 8.88066" fill="#ACBBBF"/>
<path d="M77.091 5.52772L75.3347 15.7695C75.3264 15.8163 75.3291 15.8641 75.343 15.9098C75.3568 15.9555 75.3813 15.9978 75.4148 16.0339C75.4483 16.07 75.49 16.0989 75.537 16.1188C75.5839 16.1386 75.6351 16.1489 75.6868 16.1488H77.4533C77.5951 16.1491 77.7321 16.103 77.84 16.0188C77.9479 15.9347 78.0193 15.818 78.0416 15.6899L79.775 5.63772C79.783 5.59087 79.7799 5.54296 79.7658 5.49731C79.7517 5.45166 79.727 5.40935 79.6933 5.37329C79.6597 5.33723 79.6179 5.30829 79.5708 5.28846C79.5238 5.26862 79.4726 5.25837 79.4208 5.2584H77.443C77.3579 5.25841 77.2756 5.28634 77.2109 5.33714C77.1464 5.38794 77.1039 5.45824 77.091 5.53531" fill="#ACBBBF"/>
<path d="M8.87151 18.6946H5.64287C5.50806 18.6951 5.37568 18.6396 5.28819 18.5456C5.20067 18.4518 5.16144 18.3233 5.18311 18.2015L7.44468 5.07362C7.50632 4.7129 7.85819 4.47182 8.21094 4.4724H13.0715C14.4871 4.46357 16.1722 4.6268 17.2134 5.68951C18.0025 6.51455 18.1578 7.68854 17.8595 9.09394C17.143 12.4585 14.695 13.623 11.5679 13.623H11.0833C10.8987 13.6232 10.72 13.6836 10.5796 13.7935C10.3754 13.9532 10.3272 14.174 10.2777 14.412L9.63777 18.0953C9.60872 18.2623 9.51562 18.4144 9.37519 18.5242C9.23476 18.634 9.05619 18.6945 8.87151 18.6946Z" fill="#ACBBBF"/>
<path d="M10.7548 0.407227C12.892 0.407227 14.5633 0.820692 15.489 1.78607V1.77849C16.1516 2.46896 16.4046 3.30123 16.4046 4.17777C15.2906 3.70582 14.0363 3.64149 13.069 3.6474H8.21151C7.53735 3.64667 6.77404 4.10264 6.63162 4.934L6.6315 4.93467L4.61068 16.6651H1.61144C1.45635 16.6654 1.30415 16.601 1.20394 16.4926C1.10374 16.3843 1.05946 16.2361 1.08541 16.0961L3.67412 1.0938C3.70758 0.902491 3.81432 0.728338 3.97522 0.602532C4.13611 0.476727 4.34065 0.407492 4.55222 0.407227H10.7548Z" fill="#ACBBBF"/>
</g>
</g>
<defs>
<clipPath id="clip0_2780_77198">
<rect width="80.1" height="19.8" fill="white" transform="translate(0.632812 0.100098)"/>
</clipPath>
</defs>
</svg>
