<svg width="45" height="16" viewBox="0 0 45 16" fill="none" xmlns="http://www.w3.org/2000/svg">
<g id="visa" clip-path="url(#clip0_2780_77202)">
<path id="background" fill-rule="evenodd" clip-rule="evenodd" d="M22.2488 1.19501L19.3713 14.6466H15.891L18.7695 1.19501H22.2488ZM36.8893 9.88038L38.7213 4.82984L39.7758 9.88038H36.8893ZM40.7726 14.6466H43.9908L41.1815 1.19501H38.2115C37.5434 1.19501 36.9802 1.58344 36.7301 2.1815L31.5087 14.6466H35.1618L35.8876 12.6372H40.3519L40.7726 14.6466ZM31.6895 10.2545C31.7051 6.70464 26.7806 6.50861 26.8144 4.92239C26.825 4.44009 27.2845 3.92727 28.2902 3.79592C28.788 3.7309 30.1633 3.68048 31.721 4.39763L32.3323 1.54529C31.4944 1.24145 30.4177 0.949219 29.0766 0.949219C25.6375 0.949219 23.2161 2.77791 23.1968 5.3954C23.1739 7.33289 24.9246 8.41261 26.2435 9.0568C27.5989 9.71584 28.0533 10.1388 28.0483 10.7282C28.0384 11.6311 26.967 12.0292 25.9656 12.0448C24.2161 12.0719 23.2005 11.5717 22.3915 11.195L21.7615 14.1425C22.5739 14.516 24.0749 14.841 25.6312 14.8573C29.2873 14.8573 31.6782 13.0522 31.6895 10.2545ZM17.2762 1.19501L11.6382 14.6466H7.95993L5.18554 3.91135C5.01704 3.25059 4.87076 3.00778 4.3586 2.72982C3.52237 2.27538 2.14082 1.8498 0.925781 1.5851L1.00771 1.19501H6.92932C7.68362 1.19501 8.36259 1.69689 8.53381 2.56628L9.99928 10.3508L13.6211 1.19501H17.2762Z" fill="#ACBBBF"/>
</g>
<defs>
<clipPath id="clip0_2780_77202">
<rect width="43.8075" height="14.85" fill="white" transform="translate(0.558594 0.575195)"/>
</clipPath>
</defs>
</svg>
