<svg width="156" height="53" viewBox="0 0 156 53" fill="none" xmlns="http://www.w3.org/2000/svg">
<g clip-path="url(#clip0_2109_38429)">
<path d="M143.175 0.199388H12.3951C11.9184 0.199388 11.4474 0.199388 10.9719 0.201988C10.5739 0.204588 10.1791 0.212141 9.7773 0.218498C8.90437 0.22877 8.03349 0.305567 7.17223 0.448221C6.31218 0.59398 5.47907 0.868778 4.70109 1.26332C3.92405 1.6612 3.21405 2.17821 2.59684 2.79558C1.97639 3.41122 1.4592 4.12281 1.06516 4.903C0.67002 5.68163 0.396033 6.51601 0.252655 7.37731C0.107914 8.23753 0.0300279 9.10766 0.019695 9.97991C0.007631 10.3785 0.006357 10.7784 0 11.177V41.2256C0.006357 41.6292 0.007631 42.0203 0.019695 42.424C0.0300311 43.2962 0.107917 44.1663 0.252655 45.0265C0.395637 45.8883 0.669641 46.7232 1.06516 47.5021C1.45902 48.2798 1.97629 48.9885 2.59684 49.6007C3.21171 50.2208 3.92217 50.7382 4.70109 51.133C5.47907 51.5286 6.31209 51.805 7.17223 51.953C8.03364 52.0945 8.90442 52.1714 9.7773 52.1829C10.1791 52.1917 10.5739 52.1968 10.9719 52.1968C11.4474 52.1994 11.9184 52.1994 12.3951 52.1994H143.175C143.642 52.1994 144.117 52.1994 144.584 52.1968C144.981 52.1968 145.387 52.1917 145.783 52.1829C146.654 52.172 147.523 52.0952 148.383 51.953C149.246 51.804 150.082 51.5276 150.864 51.133C151.642 50.7379 152.352 50.2206 152.966 49.6007C153.585 48.9861 154.103 48.2779 154.502 47.5021C154.895 46.7226 155.166 45.8878 155.307 45.0265C155.452 44.1662 155.532 43.2963 155.548 42.424C155.553 42.0203 155.553 41.6292 155.553 41.2256C155.563 40.7533 155.563 40.2836 155.563 39.8036V12.5964C155.563 12.1203 155.563 11.648 155.553 11.177C155.553 10.7784 155.553 10.3785 155.548 9.97986C155.532 9.10754 155.452 8.23759 155.307 7.37726C155.166 6.51645 154.894 5.68214 154.502 4.90294C153.7 3.33914 152.427 2.06622 150.864 1.2632C150.082 0.869625 149.246 0.5949 148.383 0.448104C147.523 0.304821 146.654 0.227998 145.783 0.218316C145.387 0.211972 144.981 0.204354 144.584 0.201819C144.117 0.199219 143.642 0.199388 143.175 0.199388Z" fill="#A6A6A6"/>
<path d="M10.9801 51.0609C10.584 51.0609 10.1975 51.0559 9.80451 51.047C8.99042 51.0364 8.17824 50.9655 7.37463 50.835C6.62529 50.7059 5.89939 50.4659 5.22086 50.1227C4.54856 49.7824 3.93536 49.3362 3.40476 48.8012C2.86649 48.2724 2.41835 47.6592 2.0781 46.9857C1.73411 46.3079 1.49604 45.5813 1.3722 44.8313C1.23846 44.0255 1.1661 43.2106 1.15575 42.3938C1.14751 42.1197 1.13672 41.2068 1.13672 41.2068V11.1761C1.13672 11.1761 1.14821 10.2772 1.15582 10.0132C1.16573 9.19766 1.23767 8.38409 1.371 7.57949C1.49508 6.82746 1.73332 6.09881 2.0775 5.41876C2.4165 4.74576 2.86215 4.13206 3.39718 3.60142C3.93162 3.06575 4.54678 2.61722 5.22023 2.27221C5.89719 1.93016 6.62172 1.69179 7.36954 1.56509C8.1758 1.43322 8.9908 1.36193 9.80771 1.35181L10.9807 1.33594H144.58L145.767 1.35245C146.576 1.36207 147.384 1.43272 148.183 1.56381C148.938 1.69211 149.67 1.93214 150.355 2.27602C151.704 2.97132 152.802 4.07135 153.494 5.42193C153.833 6.09729 154.068 6.82 154.19 7.56552C154.325 8.37673 154.401 9.1967 154.416 10.0189C154.42 10.3871 154.42 10.7825 154.42 11.1761C154.43 11.6636 154.43 12.1276 154.43 12.5954V39.8027C154.43 40.275 154.43 40.7358 154.42 41.2004C154.42 41.6232 154.42 42.0105 154.415 42.409C154.4 43.2166 154.325 44.0219 154.193 44.8186C154.071 45.574 153.835 46.3062 153.491 46.9896C153.148 47.6557 152.702 48.2637 152.17 48.791C151.639 49.3289 151.025 49.7778 150.351 50.1203C149.668 50.4661 148.937 50.707 148.183 50.835C147.379 50.9662 146.567 51.0371 145.753 51.047C145.372 51.0559 144.973 51.0609 144.586 51.0609L143.177 51.0635L10.9801 51.0609Z" fill="white"/>
<path d="M32.2014 26.5932C32.2153 25.5081 32.5035 24.4442 33.0392 23.5005C33.5748 22.5567 34.3405 21.7638 35.2649 21.1955C34.6776 20.3568 33.9029 19.6666 33.0022 19.1796C32.1015 18.6927 31.0997 18.4225 30.0764 18.3905C27.8934 18.1614 25.777 19.6968 24.6646 19.6968C23.5307 19.6968 21.8179 18.4133 19.9735 18.4512C18.7806 18.4897 17.6179 18.8366 16.5989 19.4581C15.5798 20.0796 14.7392 20.9544 14.1588 21.9974C11.6446 26.3504 13.5199 32.7477 15.9283 36.2663C17.1333 37.9893 18.5415 39.9139 20.3842 39.8456C22.1874 39.7708 22.8609 38.6958 25.0375 38.6958C27.1938 38.6958 27.8257 39.8456 29.7058 39.8022C31.6406 39.7708 32.8597 38.0716 34.0224 36.3323C34.8882 35.1047 35.5544 33.7478 35.9964 32.3121C34.8722 31.8366 33.9129 31.0408 33.2381 30.0238C32.5632 29.0068 32.2027 27.8137 32.2014 26.5932Z" fill="#0D0D0D"/>
<path d="M28.6502 16.0769C29.7052 14.8104 30.2249 13.1826 30.0991 11.5391C28.4873 11.7083 26.9985 12.4787 25.9292 13.6966C25.4064 14.2915 25.0061 14.9837 24.7509 15.7335C24.4958 16.4833 24.391 17.276 24.4424 18.0664C25.2486 18.0747 26.0461 17.8999 26.775 17.5553C27.5039 17.2107 28.145 16.7052 28.6502 16.0769Z" fill="#0D0D0D"/>
<path d="M54.9953 35.4831H48.8419L47.3642 39.8465H44.7578L50.5862 23.7031H53.2941L59.1226 39.8465H56.4718L54.9953 35.4831ZM49.4792 33.4697H54.3568L51.9523 26.3882H51.885L49.4792 33.4697Z" fill="#0D0D0D"/>
<path d="M71.7119 33.9601C71.7119 37.6176 69.7542 39.9675 66.8 39.9675C66.0517 40.0067 65.3074 39.8343 64.6525 39.4701C63.9976 39.1059 63.4584 38.5647 63.0968 37.9083H63.0409V43.738H60.625V28.0745H62.9635V30.0322H63.0079C63.3862 29.379 63.9344 28.8405 64.5944 28.4741C65.2543 28.1077 66.0012 27.9271 66.7556 27.9514C69.7428 27.9514 71.7119 30.3127 71.7119 33.9601ZM69.2286 33.9601C69.2286 31.5772 67.9972 30.0106 66.1183 30.0106C64.2724 30.0106 63.0308 31.6102 63.0308 33.9601C63.0308 36.3316 64.2724 37.9198 66.1183 37.9198C67.9972 37.9198 69.2286 36.3646 69.2286 33.9601Z" fill="#0D0D0D"/>
<path d="M84.665 33.9601C84.665 37.6176 82.7074 39.9675 79.7532 39.9675C79.0048 40.0066 78.2606 39.8343 77.6056 39.4701C76.9507 39.1059 76.4116 38.5646 76.0499 37.9083H75.994V43.738H73.5781V28.0745H75.9166V30.0321H75.961C76.3393 29.3789 76.8875 28.8405 77.5474 28.4741C78.2074 28.1077 78.9543 27.9271 79.7087 27.9514C82.6959 27.9514 84.665 30.3127 84.665 33.9601ZM82.1818 33.9601C82.1818 31.5772 80.9503 30.0106 79.0714 30.0106C77.2255 30.0106 75.9839 31.6102 75.9839 33.9601C75.9839 36.3316 77.2255 37.9198 79.0714 37.9198C80.9503 37.9198 82.1818 36.3646 82.1818 33.9601Z" fill="#0D0D0D"/>
<path d="M93.227 35.3482C93.406 36.9491 94.9612 38.0002 97.0864 38.0002C99.1227 38.0002 100.588 36.949 100.588 35.5056C100.588 34.2525 99.7041 33.5023 97.612 32.9881L95.5198 32.4841C92.5554 31.7681 91.1792 30.3817 91.1792 28.1321C91.1792 25.3468 93.6066 23.4336 97.0534 23.4336C100.465 23.4336 102.803 25.3468 102.882 28.1321H100.443C100.297 26.5211 98.9652 25.5486 97.0191 25.5486C95.0729 25.5486 93.7411 26.5325 93.7411 27.9646C93.7411 29.1059 94.5917 29.7775 96.6725 30.2916L98.4511 30.7283C101.763 31.5116 103.139 32.8421 103.139 35.2034C103.139 38.2236 100.734 40.1152 96.9073 40.1152C93.3272 40.1152 90.9101 38.268 90.7539 35.3481L93.227 35.3482Z" fill="#0D0D0D"/>
<path d="M108.354 25.2891V28.0744H110.592V29.9876H108.354V36.4762C108.354 37.4842 108.802 37.9539 109.786 37.9539C110.051 37.9493 110.317 37.9306 110.58 37.898V39.7998C110.138 39.8824 109.688 39.9199 109.238 39.9115C106.855 39.9115 105.926 39.0165 105.926 36.7338V29.9876H104.215V28.0744H105.926V25.2891H108.354Z" fill="#0D0D0D"/>
<path d="M111.887 33.96C111.887 30.2567 114.068 27.9297 117.469 27.9297C120.881 27.9297 123.052 30.2567 123.052 33.96C123.052 37.6733 120.893 39.9902 117.469 39.9902C114.046 39.9902 111.887 37.6733 111.887 33.96ZM120.591 33.96C120.591 31.4196 119.426 29.9203 117.469 29.9203C115.511 29.9203 114.348 31.4311 114.348 33.96C114.348 36.5104 115.511 37.9983 117.469 37.9983C119.426 37.9983 120.591 36.5104 120.591 33.96Z" fill="#0D0D0D"/>
<path d="M125.043 28.0744H127.347V30.0777H127.403C127.559 29.4521 127.926 28.8991 128.441 28.5119C128.957 28.1246 129.59 27.9267 130.234 27.9513C130.513 27.9503 130.79 27.9805 131.062 28.0414V30.3012C130.71 30.1938 130.344 30.1445 129.976 30.1552C129.625 30.1409 129.276 30.2028 128.951 30.3366C128.626 30.4703 128.334 30.6728 128.095 30.93C127.856 31.1873 127.675 31.4933 127.565 31.8269C127.455 32.1606 127.419 32.5141 127.459 32.8631V39.8442H125.043L125.043 28.0744Z" fill="#0D0D0D"/>
<path d="M142.203 36.3873C141.878 38.5239 139.797 39.9902 137.135 39.9902C133.711 39.9902 131.586 37.6962 131.586 34.0158C131.586 30.324 133.723 27.9297 137.033 27.9297C140.29 27.9297 142.338 30.1666 142.338 33.7353V34.563H134.025V34.709C133.986 35.1421 134.041 35.5785 134.184 35.9891C134.327 36.3997 134.556 36.7751 134.855 37.0904C135.155 37.4057 135.518 37.6537 135.921 37.8179C136.323 37.9821 136.756 38.0588 137.191 38.0428C137.762 38.0963 138.335 37.964 138.824 37.6658C139.314 37.3675 139.695 36.9191 139.909 36.3873L142.203 36.3873ZM134.036 32.8745H139.92C139.942 32.485 139.883 32.0953 139.747 31.7297C139.611 31.3641 139.401 31.0306 139.13 30.7501C138.859 30.4696 138.532 30.2482 138.172 30.0997C137.811 29.9512 137.423 29.8789 137.033 29.8873C136.64 29.885 136.25 29.9605 135.886 30.1097C135.522 30.2589 135.191 30.4787 134.912 30.7564C134.634 31.0341 134.413 31.3643 134.262 31.7278C134.112 32.0914 134.035 32.4811 134.036 32.8745Z" fill="#0D0D0D"/>
<path d="M49.1729 11.5518C49.6794 11.5154 50.1877 11.5919 50.661 11.7758C51.1344 11.9597 51.561 12.2463 51.9102 12.615C52.2593 12.9837 52.5223 13.4253 52.6801 13.908C52.838 14.3906 52.8867 14.9023 52.8228 15.4061C52.8228 17.8842 51.4835 19.3087 49.1729 19.3087H46.3711V11.5518H49.1729ZM47.5759 18.2117H49.0384C49.4003 18.2333 49.7625 18.174 50.0986 18.038C50.4347 17.902 50.7362 17.6927 50.9813 17.4255C51.2263 17.1583 51.4087 16.8398 51.5151 16.4931C51.6215 16.1465 51.6493 15.7806 51.5965 15.4219C51.6455 15.0646 51.6149 14.7009 51.5068 14.3568C51.3988 14.0128 51.216 13.6969 50.9715 13.4317C50.727 13.1666 50.4269 12.9589 50.0927 12.8234C49.7585 12.6879 49.3984 12.628 49.0384 12.6479H47.5759V18.2117Z" fill="#0D0D0D"/>
<path d="M54.1849 16.3771C54.1481 15.9924 54.1921 15.6043 54.3141 15.2376C54.4361 14.8709 54.6334 14.5338 54.8933 14.2478C55.1533 13.9618 55.4701 13.7333 55.8235 13.577C56.1769 13.4206 56.5591 13.3398 56.9455 13.3398C57.332 13.3398 57.7142 13.4206 58.0676 13.577C58.421 13.7333 58.7378 13.9618 58.9977 14.2478C59.2577 14.5338 59.4549 14.8709 59.5769 15.2376C59.6989 15.6043 59.7429 15.9924 59.7061 16.3771C59.7436 16.7622 59.7001 17.1509 59.5785 17.5182C59.4568 17.8855 59.2596 18.2232 58.9996 18.5098C58.7397 18.7963 58.4226 19.0253 58.0688 19.182C57.7151 19.3387 57.3324 19.4196 56.9455 19.4196C56.5586 19.4196 56.176 19.3387 55.8222 19.182C55.4685 19.0253 55.1514 18.7963 54.8914 18.5098C54.6314 18.2232 54.4343 17.8855 54.3126 17.5182C54.1909 17.1509 54.1474 16.7622 54.1849 16.3771ZM58.5178 16.3771C58.5178 15.1082 57.9478 14.3662 56.9474 14.3662C55.9432 14.3662 55.3783 15.1082 55.3783 16.3771C55.3783 17.6562 55.9433 18.3925 56.9474 18.3925C57.9478 18.3925 58.5178 17.6511 58.5178 16.3771Z" fill="#0D0D0D"/>
<path d="M67.0441 19.3069H65.8457L64.6358 14.9956H64.5444L63.3397 19.3069H62.1526L60.5391 13.4531H61.7108L62.7595 17.9199H62.8458L64.0493 13.4531H65.1576L66.3611 17.9199H66.4525L67.4961 13.4531H68.6514L67.0441 19.3069Z" fill="#0D0D0D"/>
<path d="M70.0078 13.4508H71.1199V14.3807H71.2063C71.3527 14.0467 71.5997 13.7667 71.9128 13.5798C72.226 13.3928 72.5896 13.3082 72.9531 13.3378C73.238 13.3164 73.524 13.3593 73.7899 13.4634C74.0559 13.5676 74.2951 13.7302 74.4896 13.9393C74.6842 14.1484 74.8293 14.3986 74.914 14.6714C74.9988 14.9441 75.0211 15.2325 74.9793 15.515V19.3045H73.824V15.8051C73.824 14.8644 73.4152 14.3966 72.5608 14.3966C72.3675 14.3876 72.1744 14.4205 71.9949 14.4931C71.8155 14.5657 71.6538 14.6762 71.521 14.8171C71.3883 14.958 71.2876 15.1259 71.2258 15.3094C71.164 15.4929 71.1426 15.6875 71.1631 15.88V19.3046H70.0078L70.0078 13.4508Z" fill="#0D0D0D"/>
<path d="M76.8203 11.168H77.9756V19.3069H76.8203V11.168Z" fill="#0D0D0D"/>
<path d="M79.5833 16.3772C79.5466 15.9925 79.5906 15.6044 79.7126 15.2377C79.8346 14.871 80.032 14.5338 80.2919 14.2478C80.5519 13.9618 80.8687 13.7333 81.2221 13.577C81.5756 13.4206 81.9578 13.3398 82.3443 13.3398C82.7307 13.3398 83.1129 13.4206 83.4664 13.577C83.8198 13.7333 84.1366 13.9618 84.3966 14.2478C84.6565 14.5338 84.8539 14.871 84.9759 15.2377C85.0979 15.6044 85.1419 15.9925 85.1052 16.3772C85.1426 16.7623 85.0991 17.151 84.9774 17.5183C84.8557 17.8856 84.6585 18.2233 84.3985 18.5099C84.1384 18.7964 83.8214 19.0254 83.4676 19.1821C83.1138 19.3387 82.7312 19.4197 82.3443 19.4197C81.9573 19.4197 81.5747 19.3387 81.2209 19.1821C80.8671 19.0254 80.5501 18.7964 80.29 18.5099C80.03 18.2233 79.8328 17.8856 79.7111 17.5183C79.5894 17.151 79.5459 16.7623 79.5833 16.3772ZM83.9162 16.3772C83.9162 15.1084 83.3462 14.3663 82.3458 14.3663C81.3416 14.3663 80.7767 15.1084 80.7767 16.3773C80.7767 17.6563 81.3417 18.3926 82.3458 18.3926C83.3462 18.3926 83.9162 17.6512 83.9162 16.3772Z" fill="#0D0D0D"/>
<path d="M86.3203 17.6512C86.3203 16.5974 87.1049 15.99 88.4975 15.9037L90.0832 15.8122V15.307C90.0832 14.6887 89.6744 14.3396 88.8848 14.3396C88.2398 14.3396 87.793 14.5764 87.6647 14.9902H86.5463C86.6644 13.9848 87.6102 13.3398 88.9381 13.3398C90.4057 13.3398 91.2334 14.0704 91.2334 15.307V19.3066H90.1213V18.484H90.0299C89.8444 18.7791 89.5838 19.0196 89.2749 19.1811C88.966 19.3426 88.6198 19.4192 88.2716 19.4031C88.0258 19.4286 87.7775 19.4024 87.5425 19.3261C87.3075 19.2498 87.0911 19.1251 86.9073 18.96C86.7234 18.795 86.5762 18.5932 86.4751 18.3678C86.374 18.1424 86.3213 17.8982 86.3203 17.6512ZM90.0832 17.151V16.6616L88.6537 16.753C87.8476 16.8069 87.4819 17.0811 87.4819 17.5972C87.4819 18.1241 87.939 18.4306 88.5674 18.4306C88.7516 18.4493 88.9376 18.4307 89.1144 18.376C89.2912 18.3213 89.4552 18.2315 89.5966 18.1121C89.738 17.9927 89.854 17.8461 89.9376 17.681C90.0212 17.5159 90.0707 17.3356 90.0832 17.151Z" fill="#0D0D0D"/>
<path d="M92.75 16.3775C92.75 14.5278 93.7009 13.356 95.1799 13.356C95.5457 13.3392 95.9088 13.4268 96.2267 13.6087C96.5446 13.7905 96.8041 14.0591 96.975 14.383H97.0613V11.168H98.2166V19.3069H97.1096V18.3821H97.0182C96.8341 18.7038 96.5655 18.9691 96.2415 19.1491C95.9174 19.3291 95.5503 19.4171 95.1799 19.4034C93.6907 19.4035 92.75 18.2317 92.75 16.3775ZM93.9434 16.3775C93.9434 17.6191 94.5287 18.3662 95.5075 18.3662C96.4812 18.3662 97.0829 17.6083 97.0829 16.3826C97.0829 15.1626 96.4749 14.3939 95.5075 14.3939C94.535 14.3939 93.9434 15.1461 93.9434 16.3775Z" fill="#0D0D0D"/>
<path d="M102.997 16.3771C102.961 15.9924 103.005 15.6043 103.127 15.2376C103.249 14.8709 103.446 14.5338 103.706 14.2478C103.966 13.9618 104.283 13.7333 104.636 13.577C104.989 13.4206 105.372 13.3398 105.758 13.3398C106.144 13.3398 106.527 13.4206 106.88 13.577C107.233 13.7333 107.55 13.9618 107.81 14.2478C108.07 14.5338 108.267 14.8709 108.389 15.2376C108.511 15.6043 108.555 15.9924 108.519 16.3771C108.556 16.7622 108.513 17.1509 108.391 17.5182C108.269 17.8855 108.072 18.2232 107.812 18.5098C107.552 18.7963 107.235 19.0253 106.881 19.182C106.528 19.3387 106.145 19.4196 105.758 19.4196C105.371 19.4196 104.988 19.3387 104.635 19.182C104.281 19.0253 103.964 18.7963 103.704 18.5098C103.444 18.2232 103.247 17.8855 103.125 17.5182C103.003 17.1509 102.96 16.7622 102.997 16.3771ZM107.33 16.3771C107.33 15.1082 106.76 14.3662 105.76 14.3662C104.756 14.3662 104.191 15.1082 104.191 16.3771C104.191 17.6562 104.756 18.3925 105.76 18.3925C106.76 18.3925 107.33 17.6511 107.33 16.3771Z" fill="#0D0D0D"/>
<path d="M110.07 13.4508H111.182V14.3807H111.269C111.415 14.0467 111.662 13.7667 111.975 13.5798C112.288 13.3928 112.652 13.3082 113.016 13.3378C113.3 13.3164 113.586 13.3593 113.852 13.4634C114.118 13.5676 114.358 13.7302 114.552 13.9393C114.747 14.1484 114.892 14.3986 114.977 14.6714C115.061 14.9441 115.084 15.2325 115.042 15.515V19.3045H113.887V15.8051C113.887 14.8644 113.478 14.3966 112.623 14.3966C112.43 14.3876 112.237 14.4205 112.057 14.4931C111.878 14.5657 111.716 14.6762 111.584 14.8171C111.451 14.958 111.35 15.1259 111.288 15.3094C111.226 15.4929 111.205 15.6875 111.226 15.88V19.3046H110.07V13.4508Z" fill="#0D0D0D"/>
<path d="M121.57 11.9961V13.4802H122.838V14.4533H121.57V17.4633C121.57 18.0765 121.823 18.345 122.398 18.345C122.545 18.3445 122.692 18.3356 122.838 18.3184V19.2807C122.631 19.3178 122.421 19.3375 122.21 19.3397C120.925 19.3397 120.414 18.8877 120.414 17.7591V14.4532H119.484V13.4801H120.414V11.9961H121.57Z" fill="#0D0D0D"/>
<path d="M124.414 11.168H125.559V14.3939H125.651C125.804 14.0567 126.058 13.7752 126.377 13.5875C126.697 13.3999 127.066 13.3153 127.435 13.3452C127.719 13.3298 128.002 13.3771 128.265 13.4838C128.528 13.5904 128.764 13.7538 128.957 13.9622C129.149 14.1707 129.293 14.419 129.379 14.6896C129.465 14.9602 129.489 15.2463 129.451 15.5275V19.3069H128.295V15.8125C128.295 14.8775 127.86 14.404 127.043 14.404C126.845 14.3877 126.645 14.415 126.458 14.484C126.271 14.5529 126.102 14.6619 125.961 14.8033C125.821 14.9446 125.713 15.115 125.645 15.3023C125.578 15.4897 125.552 15.6896 125.569 15.8881V19.3069H124.414L124.414 11.168Z" fill="#0D0D0D"/>
<path d="M136.187 17.7262C136.031 18.2612 135.69 18.7239 135.227 19.0335C134.763 19.3431 134.205 19.4798 133.651 19.4197C133.265 19.4299 132.882 19.356 132.528 19.2032C132.174 19.0505 131.857 18.8224 131.599 18.5349C131.342 18.2475 131.151 17.9074 131.038 17.5385C130.925 17.1695 130.894 16.7804 130.947 16.3982C130.895 16.0149 130.927 15.625 131.04 15.2549C131.152 14.8848 131.343 14.5432 131.599 14.2532C131.854 13.9632 132.17 13.7316 132.523 13.5741C132.876 13.4165 133.259 13.3366 133.646 13.3399C135.275 13.3399 136.257 14.4527 136.257 16.2909V16.6941H132.124V16.7588C132.106 16.9736 132.133 17.1898 132.203 17.3936C132.273 17.5974 132.385 17.7842 132.532 17.9421C132.679 18.1 132.857 18.2255 133.055 18.3105C133.253 18.3955 133.467 18.4382 133.683 18.4358C133.959 18.469 134.239 18.4192 134.487 18.2928C134.735 18.1665 134.94 17.9692 135.075 17.7261L136.187 17.7262ZM132.124 15.8396H135.08C135.095 15.6432 135.068 15.4458 135.002 15.2603C134.936 15.0748 134.831 14.9051 134.696 14.7623C134.56 14.6195 134.396 14.5067 134.214 14.431C134.032 14.3554 133.836 14.3187 133.639 14.3232C133.44 14.3207 133.241 14.3582 133.056 14.4335C132.871 14.5089 132.703 14.6205 132.562 14.7618C132.421 14.9031 132.309 15.0713 132.234 15.2564C132.159 15.4415 132.121 15.6398 132.124 15.8396Z" fill="#0D0D0D"/>
</g>
<defs>
<clipPath id="clip0_2109_38429">
<rect width="155.563" height="52" fill="white" transform="translate(0 0.199219)"/>
</clipPath>
</defs>
</svg>
