<svg width="20" height="20" viewBox="0 0 20 20" fill="none" xmlns="http://www.w3.org/2000/svg">
<g id="M ICON OUTLINE">
<path id="Vector" d="M16.0846 14.0832C16.418 13.4998 16.668 12.8332 16.668 12.0832C16.668 9.99984 15.0013 8.33317 12.918 8.33317C10.8346 8.33317 9.16797 9.99984 9.16797 12.0832C9.16797 14.1665 10.8346 15.8332 12.918 15.8332C13.668 15.8332 14.3346 15.5832 14.918 15.2498L17.5846 17.9165L18.7513 16.7498L16.0846 14.0832ZM12.918 14.1665C11.7513 14.1665 10.8346 13.2498 10.8346 12.0832C10.8346 10.9165 11.7513 9.99984 12.918 9.99984C14.0846 9.99984 15.0013 10.9165 15.0013 12.0832C15.0013 13.2498 14.0846 14.1665 12.918 14.1665ZM10.0013 16.6665V18.3332C5.4013 18.3332 1.66797 14.5998 1.66797 9.99984C1.66797 5.39984 5.4013 1.6665 10.0013 1.6665C14.0346 1.6665 17.393 4.53317 18.168 8.33317H16.443C16.1831 7.32637 15.6912 6.39432 15.0068 5.61152C14.3224 4.82871 13.4644 4.21685 12.5013 3.82484V4.1665C12.5013 5.08317 11.7513 5.83317 10.8346 5.83317H9.16797V7.49984C9.16797 7.95817 8.79297 8.33317 8.33464 8.33317H6.66797V9.99984H8.33464V12.4998H7.5013L3.50964 8.50817C3.4013 8.9915 3.33464 9.48317 3.33464 9.99984C3.33464 13.6748 6.3263 16.6665 10.0013 16.6665Z" fill="#00141A"/>
</g>
</svg>
