<svg width="24" height="24" viewBox="0 0 24 24" fill="none" xmlns="http://www.w3.org/2000/svg">
<g id="Group 1244831078">
<rect id="Rectangle 3468175" width="24" height="24" rx="9.01734" fill="#326EE6"/>
<path id="Union" fill-rule="evenodd" clip-rule="evenodd" d="M11.9948 7.48885C13.3157 7.48825 14.6189 7.74462 15.813 8.23802C17.007 8.7314 18.0603 9.44855 18.9024 10.335C19.1662 10.6128 19.6053 10.624 19.883 10.3602C20.1607 10.0963 20.172 9.65729 19.9082 9.37955C18.9259 8.34559 17.7083 7.5201 16.3428 6.95588C14.9773 6.39169 13.4936 6.10088 11.9942 6.10156C10.4947 6.10225 9.01135 6.39439 7.64652 6.95984C6.28163 7.52531 5.06487 8.35192 4.08381 9.3868C3.82025 9.66481 3.83197 10.1038 4.10998 10.3674C4.388 10.631 4.82703 10.6192 5.09059 10.3412C5.93166 9.45402 6.98403 8.73593 8.1775 8.24148C9.37104 7.74701 10.6739 7.48945 11.9948 7.48885ZM14.6039 11.2281C13.7902 10.913 12.9 10.7486 11.9963 10.749C11.0925 10.7493 10.2025 10.9146 9.38929 11.2303C8.576 11.5461 7.86402 12.0027 7.29851 12.5618C7.02607 12.8311 6.58689 12.8285 6.31757 12.5561C6.04825 12.2837 6.05078 11.8445 6.32322 11.5752C7.03321 10.8733 7.90961 10.3166 8.88719 9.93708C9.8648 9.55752 10.9252 9.36214 11.9957 9.36168C13.0662 9.36122 14.1268 9.55571 15.1048 9.93443C16.0828 10.3131 16.9598 10.869 17.6706 11.5702C17.9434 11.8393 17.9463 12.2785 17.6773 12.5512C17.4083 12.8239 16.9691 12.8269 16.6964 12.5578C16.1302 11.9993 15.4176 11.5432 14.6039 11.2281ZM10.6551 14.2589C11.0598 14.097 11.5233 14.0089 12.0008 14.0091C12.4783 14.0092 12.9416 14.0976 13.346 14.2598C13.7511 14.4224 14.0698 14.6477 14.2875 14.8978C14.5389 15.1868 14.9771 15.2172 15.2661 14.9657C15.555 14.7143 15.5855 14.2761 15.334 13.9871C14.9509 13.5469 14.4396 13.2038 13.8624 12.9723C13.2844 12.7404 12.6449 12.622 12.0012 12.6218C11.3576 12.6216 10.7179 12.7395 10.1397 12.971C9.56225 13.2021 9.05057 13.5448 8.66703 13.9847C8.41525 14.2734 8.4452 14.7115 8.73393 14.9633C9.02266 15.2151 9.46083 15.1851 9.71261 14.8964C9.93065 14.6464 10.2497 14.4212 10.6551 14.2589ZM11.9994 18.1709C12.6124 18.1709 13.1093 17.674 13.1093 17.0611C13.1093 16.4482 12.6124 15.9513 11.9994 15.9513C11.3865 15.9513 10.8896 16.4482 10.8896 17.0611C10.8896 17.674 11.3865 18.1709 11.9994 18.1709Z" fill="white"/>
</g>
</svg>
