<svg width="48" height="49" viewBox="0 0 48 49" fill="none" xmlns="http://www.w3.org/2000/svg">
<g id="globe">
<mask id="mask0_1_56879" style="mask-type:alpha" maskUnits="userSpaceOnUse" x="0" y="0" width="48" height="49">
<rect id="Bounding box" y="0.5" width="48" height="48" fill="#D9D9D9"/>
</mask>
<g mask="url(#mask0_1_56879)">
<path id="globe_2" d="M24.0135 44.5C21.2555 44.5 18.6638 43.975 16.2385 42.925C13.8128 41.875 11.6917 40.4417 9.875 38.625C8.05833 36.8083 6.625 34.686 5.575 32.258C4.525 29.83 4 27.2357 4 24.475C4 21.7143 4.525 19.12 5.575 16.692C6.625 14.264 8.05833 12.15 9.875 10.35C11.6917 8.55 13.814 7.125 16.242 6.075C18.67 5.025 21.2643 4.5 24.025 4.5C26.7857 4.5 29.38 5.025 31.808 6.075C34.236 7.125 36.35 8.55 38.15 10.35C39.95 12.15 41.375 14.2667 42.425 16.7C43.475 19.1333 44 21.7288 44 24.4865C44 27.2445 43.475 29.8362 42.425 32.2615C41.375 34.6872 39.95 36.8053 38.15 38.616C36.35 40.4263 34.2333 41.8597 31.8 42.916C29.3667 43.972 26.7712 44.5 24.0135 44.5ZM24 41.5C28.746 41.5 32.7658 39.8417 36.0595 36.525C39.3532 33.2083 41 29.2 41 24.5V23.85C40.8 24.7167 40.3432 25.4417 39.6295 26.025C38.9162 26.6083 38.073 26.9 37.1 26.9H33.1C32 26.9 31.0583 26.5083 30.275 25.725C29.4917 24.9417 29.1 24 29.1 22.9V20.9H21.1V16.9C21.1 15.8 21.4917 14.8583 22.275 14.075C23.0583 13.2917 24 12.9 25.1 12.9H27.1V11.8C27.1 11.2667 27.325 10.6 27.775 9.8C28.225 9 28.7333 8.51667 29.3 8.35C28.4667 8.08333 27.6107 7.875 26.732 7.725C25.8537 7.575 24.943 7.5 24 7.5C19.3 7.5 15.2917 9.14683 11.975 12.4405C8.65833 15.7342 7 19.754 7 24.5H14.5C16.7 24.5 18.5833 25.2833 20.15 26.85C21.7167 28.4167 22.5 30.3 22.5 32.5V34.5H16.5V39.75C17.6333 40.3167 18.8283 40.75 20.085 41.05C21.3417 41.35 22.6467 41.5 24 41.5Z" fill="#00B5F2"/>
</g>
</g>
</svg>
