<svg width="40" height="40" viewBox="0 0 40 40" fill="none" xmlns="http://www.w3.org/2000/svg">
  <g id="info">
    <mask id="mask0_3062_10135" style="mask-type:alpha" maskUnits="userSpaceOnUse" x="0" y="0"
      width="40" height="40">
      <rect id="Bounding box" width="40" height="40" fill="#D9D9D9" />
    </mask>
    <g mask="url(#mask0_3062_10135)">
      <path id="info_2"
        d="M18.6952 28.333H21.4727V18.333H18.6952V28.333ZM20.0002 15.1663C20.4172 15.1663 20.7669 15.0279 21.0494 14.7509C21.3316 14.4743 21.4727 14.1312 21.4727 13.7218C21.4727 13.2968 21.3318 12.9405 21.0498 12.653C20.7676 12.3655 20.418 12.2218 20.0011 12.2218C19.5841 12.2218 19.2344 12.3655 18.9519 12.653C18.6697 12.9405 18.5286 13.2968 18.5286 13.7218C18.5286 14.1312 18.6695 14.4743 18.9515 14.7509C19.2337 15.0279 19.5833 15.1663 20.0002 15.1663ZM20.0082 36.6663C17.7073 36.6663 15.5452 36.2288 13.5219 35.3538C11.4986 34.4788 9.73218 33.2868 8.22273 31.7776C6.71357 30.2681 5.52148 28.5011 4.64648 26.4763C3.77148 24.4516 3.33398 22.2882 3.33398 19.9859C3.33398 17.6837 3.77148 15.5201 4.64648 13.4951C5.52148 11.4704 6.71357 9.70801 8.22273 8.20801C9.73218 6.70801 11.4993 5.52051 13.524 4.64551C15.5487 3.77051 17.7122 3.33301 20.0144 3.33301C22.3166 3.33301 24.4802 3.77051 26.5052 4.64551C28.53 5.52051 30.2923 6.70801 31.7923 8.20801C33.2923 9.70801 34.4798 11.4719 35.3548 13.4997C36.2298 15.5275 36.6673 17.6916 36.6673 19.9922C36.6673 22.293 36.2298 24.4551 35.3548 26.4784C34.4798 28.5018 33.2923 30.2663 31.7923 31.7722C30.2923 33.278 28.5284 34.4702 26.5007 35.3488C24.4729 36.2272 22.3087 36.6663 20.0082 36.6663ZM20.0144 33.8884C23.8755 33.8884 27.1533 32.5366 29.8477 29.833C32.5422 27.1294 33.8894 23.847 33.8894 19.9859C33.8894 16.1248 32.544 12.847 29.8532 10.1526C27.162 7.45815 23.8779 6.11092 20.0007 6.11092C16.1487 6.11092 12.8709 7.45634 10.1673 10.1472C7.46371 12.8383 6.1119 16.1225 6.1119 19.9997C6.1119 23.8516 7.46371 27.1294 10.1673 29.833C12.8709 32.5366 16.1533 33.8884 20.0144 33.8884Z"
        fill="#00B5F2" />
    </g>
  </g>
</svg>