<svg width="24" height="24" viewBox="0 0 24 24" fill="none" xmlns="http://www.w3.org/2000/svg">
<rect width="24" height="24" rx="5.39326" fill="#2FD159"/>
<path d="M4.31484 10.5547C4.31484 9.93594 4.38516 9.33828 4.52578 8.76172C4.67109 8.18047 4.87969 7.63203 5.15156 7.11641C5.42344 6.60078 5.75156 6.13672 6.13594 5.72422C6.29531 5.55078 6.47109 5.46406 6.66328 5.46406C6.86016 5.46406 7.02187 5.53906 7.14844 5.68906C7.27031 5.82969 7.31484 5.98437 7.28203 6.15312C7.25391 6.32187 7.17187 6.48359 7.03594 6.63828C6.57187 7.15391 6.21562 7.74922 5.96719 8.42422C5.71875 9.09453 5.59453 9.80469 5.59453 10.5547C5.59453 11.3141 5.71875 12.0289 5.96719 12.6992C6.21562 13.3695 6.57187 13.9625 7.03594 14.4781C7.17187 14.6328 7.25391 14.7945 7.28203 14.9633C7.31484 15.132 7.27031 15.2867 7.14844 15.4273C7.02187 15.5773 6.86016 15.6523 6.66328 15.6523C6.47109 15.6523 6.29531 15.5656 6.13594 15.3922C5.54531 14.7641 5.09297 14.0328 4.77891 13.1984C4.46953 12.3641 4.31484 11.4828 4.31484 10.5547ZM7.33125 10.5547C7.33125 10.0297 7.41328 9.52812 7.57734 9.05C7.74609 8.56719 7.98281 8.14297 8.2875 7.77734C8.42812 7.59922 8.59922 7.51016 8.80078 7.51016C9.00703 7.51016 9.17344 7.58281 9.3 7.72812C9.41719 7.86875 9.45937 8.02109 9.42656 8.18516C9.39844 8.34922 9.32578 8.51328 9.20859 8.67734C9.02109 8.92578 8.87344 9.21406 8.76562 9.54219C8.6625 9.87031 8.61094 10.2078 8.61094 10.5547C8.61094 10.9062 8.66016 11.2461 8.75859 11.5742C8.86172 11.9023 9.01172 12.1906 9.20859 12.4391C9.32578 12.6031 9.39844 12.7672 9.42656 12.9312C9.45937 13.0953 9.41719 13.2477 9.3 13.3883C9.17344 13.5336 9.00703 13.6062 8.80078 13.6062C8.59922 13.6062 8.42812 13.5172 8.2875 13.3391C7.98281 12.9687 7.74609 12.5445 7.57734 12.0664C7.41328 11.5883 7.33125 11.0844 7.33125 10.5547ZM10.643 10.5547C10.643 10.3062 10.7039 10.0789 10.8258 9.87266C10.9477 9.66641 11.1094 9.50234 11.3109 9.38047C11.5172 9.25391 11.7469 9.19062 12 9.19062C12.2531 9.19062 12.4805 9.25391 12.682 9.38047C12.8883 9.50234 13.0523 9.66641 13.1742 9.87266C13.2961 10.0789 13.357 10.3062 13.357 10.5547C13.357 10.8219 13.2867 11.0633 13.1461 11.2789C13.0055 11.4945 12.8273 11.6562 12.6117 11.7641V18.0148C12.6117 18.2211 12.5555 18.3852 12.443 18.507C12.3352 18.6336 12.1875 18.6969 12 18.6969C11.8219 18.6969 11.6742 18.6336 11.557 18.507C11.4445 18.3805 11.3883 18.2164 11.3883 18.0148V11.7641C11.168 11.6562 10.9875 11.4945 10.8469 11.2789C10.7109 11.0633 10.643 10.8219 10.643 10.5547ZM14.7 13.3883C14.5828 13.2477 14.5383 13.0953 14.5664 12.9312C14.5992 12.7672 14.6742 12.6031 14.7914 12.4391C14.9836 12.1906 15.1313 11.9023 15.2344 11.5742C15.3375 11.2461 15.3891 10.9062 15.3891 10.5547C15.3891 10.2078 15.3352 9.87031 15.2273 9.54219C15.1242 9.21406 14.9789 8.92578 14.7914 8.67734C14.6742 8.51328 14.5992 8.34922 14.5664 8.18516C14.5383 8.02109 14.5828 7.86875 14.7 7.72812C14.8266 7.58281 14.9906 7.51016 15.1922 7.51016C15.3984 7.51016 15.5719 7.59922 15.7125 7.77734C16.0172 8.14297 16.2539 8.56719 16.4227 9.05C16.5914 9.52812 16.6758 10.0297 16.6758 10.5547C16.6758 11.0844 16.5914 11.5883 16.4227 12.0664C16.2539 12.5445 16.0172 12.9687 15.7125 13.3391C15.5719 13.5172 15.3984 13.6062 15.1922 13.6062C14.9906 13.6062 14.8266 13.5336 14.7 13.3883ZM16.8516 15.4273C16.7297 15.2867 16.6828 15.132 16.7109 14.9633C16.7391 14.7945 16.8211 14.6328 16.957 14.4781C17.4258 13.9625 17.7844 13.3695 18.0328 12.6992C18.2813 12.0289 18.4055 11.3141 18.4055 10.5547C18.4055 9.80469 18.2813 9.09453 18.0328 8.42422C17.7844 7.74922 17.4258 7.15391 16.957 6.63828C16.8211 6.48359 16.7391 6.32187 16.7109 6.15312C16.6828 5.98437 16.7297 5.82969 16.8516 5.68906C16.9781 5.53906 17.1375 5.46406 17.3297 5.46406C17.5266 5.46406 17.7047 5.55078 17.8641 5.72422C18.2484 6.13672 18.5766 6.60078 18.8484 7.11641C19.1203 7.63203 19.3266 8.18047 19.4672 8.76172C19.6125 9.33828 19.6852 9.93594 19.6852 10.5547C19.6852 11.4828 19.5281 12.3641 19.2141 13.1984C18.9047 14.0328 18.4547 14.7641 17.8641 15.3922C17.7047 15.5656 17.5266 15.6523 17.3297 15.6523C17.1375 15.6523 16.9781 15.5773 16.8516 15.4273Z" fill="white"/>
</svg>
