<svg width="20" height="20" viewBox="0 0 20 20" fill="none" xmlns="http://www.w3.org/2000/svg">
<g id="M ICON OUTLINE">
<path id="Vector" d="M9.99673 2.5L10.0051 11.2917C9.51339 11.0083 8.94673 10.8333 8.33839 10.8333C7.89438 10.8234 7.45286 10.9023 7.03975 11.0653C6.62665 11.2284 6.25028 11.4723 5.93275 11.7828C5.61521 12.0934 5.36291 12.4642 5.19067 12.8735C5.01842 13.2829 4.92969 13.7225 4.92969 14.1667C4.92969 14.6108 5.01842 15.0504 5.19067 15.4598C5.36291 15.8692 5.61521 16.24 5.93275 16.5505C6.25028 16.861 6.62665 17.1049 7.03975 17.268C7.45286 17.4311 7.89438 17.5099 8.33839 17.5C10.1884 17.5 11.6634 16.0083 11.6634 14.1667V5.83333H14.9967V2.5H9.99673ZM8.33839 15.8333C7.42173 15.8333 6.67173 15.0833 6.67173 14.1667C6.67173 13.25 7.42173 12.5 8.33839 12.5C9.25506 12.5 10.0051 13.25 10.0051 14.1667C10.0051 15.0833 9.25506 15.8333 8.33839 15.8333Z" fill="#00141A"/>
</g>
</svg>
