<svg width="24" height="24" viewBox="0 0 24 24" fill="none" xmlns="http://www.w3.org/2000/svg">
<g id="no calls">
<path id="background" d="M19.7984 22.7004L14.2484 17.1504C12.7651 18.3504 11.1526 19.2921 9.41094 19.9754C7.66927 20.6587 5.88177 21.0004 4.04844 21.0004C3.64844 21.0004 3.37344 20.9004 3.22344 20.7004C3.07344 20.5004 2.99844 20.2504 2.99844 19.9504V15.9004C2.99844 15.6671 3.07344 15.4629 3.22344 15.2879C3.37344 15.1129 3.5651 15.0004 3.79844 14.9504L7.24844 14.2504C7.43177 14.2171 7.66094 14.2421 7.93594 14.3254C8.21094 14.4087 8.4151 14.5171 8.54844 14.6504L10.8984 17.0004C11.1984 16.8171 11.5234 16.6087 11.8734 16.3754C12.2234 16.1421 12.5318 15.9171 12.7984 15.7004L1.39844 4.30039L2.79844 2.90039L21.1984 21.3004L19.7984 22.7004ZM8.99844 17.9004L7.34844 16.2504L4.99844 16.7504V18.9504C5.68177 18.9004 6.35677 18.7837 7.02344 18.6004C7.6901 18.4171 8.34844 18.1837 8.99844 17.9004ZM17.0484 14.3004L15.6484 12.9004C15.8984 12.6171 16.1526 12.2921 16.4109 11.9254C16.6693 11.5587 16.8734 11.2171 17.0234 10.9004L14.5984 8.45039C14.4651 8.31706 14.3734 8.12956 14.3234 7.88789C14.2734 7.64622 14.2651 7.45039 14.2984 7.30039L14.9484 3.80039C14.9984 3.56706 15.1109 3.37539 15.2859 3.22539C15.4609 3.07539 15.6651 3.00039 15.8984 3.00039H19.9484C20.2484 3.00039 20.4984 3.10039 20.6984 3.30039C20.8984 3.50039 20.9984 3.75039 20.9984 4.05039C20.9984 5.88372 20.6484 7.67122 19.9484 9.41289C19.2484 11.1546 18.2818 12.7837 17.0484 14.3004ZM17.9484 9.00039C18.2318 8.35039 18.4484 7.69206 18.5984 7.02539C18.7484 6.35872 18.8651 5.68372 18.9484 5.00039H16.7484L16.2984 7.35039L17.9484 9.00039Z" fill="#00141A"/>
</g>
</svg>
