<svg width="24" height="24" viewBox="0 0 24 24" fill="none" xmlns="http://www.w3.org/2000/svg">
<g id="Frame 1618873470">
<rect width="24" height="24" rx="12" fill="#7198DC"/>
<path id="Subtract" fill-rule="evenodd" clip-rule="evenodd" d="M8.86797 17.7172L9.22422 20.3609H14.7742L15.1305 17.6984C15.1555 17.6859 15.1867 17.6641 15.2242 17.6328C15.2617 17.6016 15.2992 17.5797 15.3367 17.5672L17.8117 18.6172L20.6242 13.7234L18.4867 12.1484C18.4867 12.1289 18.4898 12.1039 18.4961 12.0734C18.5023 12.0429 18.5055 12.0179 18.5055 11.9984V11.8484L20.643 10.2547L17.868 5.41719L15.4117 6.44844L15.1117 6.29844L14.7742 3.61719H9.22422L8.88672 6.29844C8.84922 6.32344 8.80822 6.347 8.76372 6.36913C8.71934 6.39138 8.67284 6.41156 8.62422 6.42969L6.13047 5.41719L3.35547 10.2547L5.45547 11.8484C5.45547 11.8786 5.45859 11.9004 5.46484 11.9141C5.47109 11.9277 5.47422 11.9464 5.47422 11.9703C5.47422 12.0007 5.47109 12.0288 5.46484 12.0547C5.45859 12.0806 5.45547 12.1056 5.45547 12.1297L3.35547 13.7234L6.13047 18.6172L8.62422 17.5672C8.66647 17.5911 8.70828 17.6158 8.74966 17.6413C8.79103 17.6669 8.83047 17.6922 8.86797 17.7172ZM12 15.75C14.0711 15.75 15.75 14.0711 15.75 12C15.75 9.92893 14.0711 8.25 12 8.25C9.92893 8.25 8.25 9.92893 8.25 12C8.25 14.0711 9.92893 15.75 12 15.75ZM14.25 12C14.25 13.2426 13.2426 14.25 12 14.25C10.7574 14.25 9.75 13.2426 9.75 12C9.75 10.7574 10.7574 9.75 12 9.75C13.2426 9.75 14.25 10.7574 14.25 12Z" fill="white"/>
</g>
</svg>
