<svg width="24" height="24" viewBox="0 0 24 24" fill="none" xmlns="http://www.w3.org/2000/svg">
<g id="sim_card_download">
<mask id="mask0_1334_16041" style="mask-type:alpha" maskUnits="userSpaceOnUse" x="0" y="0" width="24" height="24">
<rect id="Bounding box" width="24" height="24" fill="#D9D9D9"/>
</mask>
<g mask="url(#mask0_1334_16041)">
<path id="sim_card_download_2" d="M12 16.5577L15.6538 12.9038L14.6 11.85L12.75 13.65V9.25H11.25V13.65L9.4 11.85L8.34625 12.9038L12 16.5577ZM6.30775 21.5C5.80258 21.5 5.375 21.325 5.025 20.975C4.675 20.625 4.5 20.1974 4.5 19.6923V8.2115L10.2115 2.5H17.6923C18.1974 2.5 18.625 2.675 18.975 3.025C19.325 3.375 19.5 3.80258 19.5 4.30775V19.6923C19.5 20.1974 19.325 20.625 18.975 20.975C18.625 21.325 18.1974 21.5 17.6923 21.5H6.30775ZM6.30775 20H17.6923C17.7692 20 17.8398 19.9679 17.9038 19.9038C17.9679 19.8398 18 19.7693 18 19.6923V4.30775C18 4.23075 17.9679 4.16025 17.9038 4.09625C17.8398 4.03208 17.7692 4 17.6923 4H10.85L6 8.85V19.6923C6 19.7693 6.03208 19.8398 6.09625 19.9038C6.16025 19.9679 6.23075 20 6.30775 20ZM6.30775 20H6H18H6.30775Z" fill="#1C1B1F"/>
</g>
</g>
</svg>
