<svg width="25" height="24" viewBox="0 0 25 24" fill="none" xmlns="http://www.w3.org/2000/svg">
<g id="wifi">
<mask id="mask0_1334_16027" style="mask-type:alpha" maskUnits="userSpaceOnUse" x="0" y="0" width="25" height="24">
<rect id="Bounding box" x="0.5" width="24" height="24" fill="#D9D9D9"/>
</mask>
<g mask="url(#mask0_1334_16027)">
<path id="wifi_2" d="M12.5001 20.7118C11.9347 20.7118 11.4568 20.5166 11.0663 20.1263C10.676 19.7359 10.4808 19.258 10.4808 18.6925C10.4808 18.1272 10.676 17.6494 11.0663 17.259C11.4568 16.8687 11.9347 16.6735 12.5001 16.6735C13.0654 16.6735 13.5433 16.8687 13.9338 17.259C14.3242 17.6494 14.5193 18.1272 14.5193 18.6925C14.5193 19.258 14.3242 19.7359 13.9338 20.1263C13.5433 20.5166 13.0654 20.7118 12.5001 20.7118ZM6.85007 15.3503L5.28857 13.758C6.21424 12.8324 7.29199 12.1029 8.52182 11.5695C9.75182 11.0362 11.0784 10.7695 12.5016 10.7695C13.9249 10.7695 15.251 11.0388 16.4798 11.5773C17.7087 12.1158 18.7859 12.8529 19.7116 13.7888L18.1501 15.3503C17.4167 14.6169 16.5667 14.0419 15.6001 13.6253C14.6334 13.2086 13.6001 13.0003 12.5001 13.0003C11.4001 13.0003 10.3667 13.2086 9.40007 13.6253C8.43341 14.0419 7.58341 14.6169 6.85007 15.3503ZM2.60007 11.1003L1.03857 9.53878C2.50141 8.05545 4.20974 6.88978 6.16357 6.04178C8.11741 5.19361 10.2296 4.76953 12.5001 4.76953C14.7706 4.76953 16.8827 5.19361 18.8366 6.04178C20.7904 6.88978 22.4987 8.05545 23.9616 9.53878L22.4001 11.1003C21.1167 9.81695 19.6292 8.81278 17.9376 8.08778C16.2459 7.36278 14.4334 7.00028 12.5001 7.00028C10.5667 7.00028 8.75424 7.36278 7.06257 8.08778C5.37091 8.81278 3.88341 9.81695 2.60007 11.1003Z" fill="#1C1B1F"/>
</g>
</g>
</svg>
