<svg width="91" height="42" viewBox="0 0 91 42" fill="none" xmlns="http://www.w3.org/2000/svg">
<g id="Button">
<path id="Vector" d="M28.8961 11.816C28.5727 12.0967 28.2467 12.3748 27.9275 12.6607C26.7984 13.673 25.9507 14.85 25.6518 16.3182C25.4365 17.2824 25.4439 18.2792 25.673 19.2407C25.902 20.202 26.3476 21.1051 26.9792 21.8879C27.6298 22.7237 28.4056 23.4179 29.4381 23.8197C29.559 23.8661 29.6813 23.9072 29.8294 23.9613C29.6936 24.3078 29.5767 24.6491 29.4314 24.9814C28.5904 26.913 27.4968 28.7005 26.0037 30.2512C25.7214 30.5378 25.4166 30.8038 25.092 31.0469C24.0052 31.8841 22.7825 32.2061 21.4035 31.8197C20.7161 31.6291 20.0367 31.4153 19.352 31.2156C18.6544 30.9921 17.9274 30.8621 17.1919 30.8294C16.2708 30.8087 15.4257 31.0702 14.5698 31.3663C13.9292 31.606 13.2741 31.8094 12.608 31.9754C11.5578 32.2138 10.6068 31.9072 9.73733 31.3482C8.88165 30.7748 8.14478 30.0566 7.56359 29.2299C6.04924 27.2086 4.91192 24.9562 4.2011 22.5706C3.56323 20.4536 3.40991 18.2318 3.7514 16.0542C4.05844 14.1134 4.82197 12.362 6.25935 10.9145C7.75379 9.41544 9.59467 8.79859 11.7494 9.00206C12.8227 9.10251 13.8471 9.39742 14.8741 9.68074C15.3021 9.79922 15.7396 9.88808 16.1729 9.99238C16.7799 10.122 17.4126 10.0922 18.0029 9.90611C18.8494 9.67173 19.6848 9.40513 20.5245 9.16948C21.7601 8.80278 23.0718 8.7285 24.3449 8.95311C26.0186 9.25962 27.3419 10.1122 28.4492 11.3073C28.585 11.4566 28.7208 11.6086 28.8567 11.7606C28.8716 11.7779 28.8847 11.7964 28.8961 11.816Z" fill="#292B2E"/>
<path id="Vector_2" d="M22.6064 2.04688C22.6423 2.37929 22.6577 2.7134 22.6526 3.04751C22.5375 4.76349 21.7752 6.38296 20.5047 7.61027C19.9246 8.18721 19.282 8.69332 18.4913 8.99081C17.812 9.24837 17.1015 9.2973 16.3855 9.34753C16.3747 9.34753 16.3624 9.33594 16.3516 9.3308C16.4535 5.38876 18.5498 2.83889 22.6064 2.04688Z" fill="#292B2E"/>
<path id="Vector_3" d="M37.8359 6.73084C40.0182 6.39455 42.2263 6.23129 44.4373 6.24275C47.8337 6.24275 50.3253 6.99226 51.9094 8.34062C53.3712 9.53958 54.2408 11.376 54.2408 13.6207C54.2408 15.9053 53.5289 17.7043 52.1852 19.0154C50.3633 20.8531 47.4004 21.792 44.0406 21.792C43.0135 21.792 42.0652 21.7545 41.2745 21.5678V31.6824H37.8359V6.73084ZM41.2745 18.9046C42.0244 19.0926 42.9741 19.1622 44.1193 19.1622C48.2684 19.1622 50.7982 17.2523 50.7982 13.7675C50.7982 10.4333 48.3092 8.82355 44.5146 8.82355C43.0135 8.82355 41.8669 8.93558 41.2745 9.08111V18.9046Z" fill="#292B2E"/>
<path id="Vector_4" d="M66.6433 31.68L66.3717 29.3941H66.2534C65.1856 30.8184 63.1288 32.0921 60.4034 32.0921C56.5315 32.0921 54.5547 29.5075 54.5547 26.8843C54.5547 22.5056 58.6658 20.1039 66.0552 20.1412V19.7665C66.0552 18.2687 65.6203 15.5707 61.7076 15.5707C59.9293 15.5707 58.072 16.0961 56.7284 16.9203L55.9377 14.7478C57.5192 13.7729 59.811 13.1367 62.2213 13.1367C68.0713 13.1367 69.4937 16.9203 69.4937 20.5533V27.3298C69.4937 28.9036 69.5725 30.4399 69.8089 31.6761L66.6433 31.68ZM66.1299 22.427C62.3366 22.3523 58.0286 22.9886 58.0286 26.5094C58.0286 28.6446 59.5298 29.657 61.3095 29.657C63.7985 29.657 65.3853 28.1579 65.9288 26.6228C66.0513 26.2847 66.1178 25.9307 66.1257 25.5732L66.1299 22.427Z" fill="#292B2E"/>
<path id="Vector_5" d="M74.1134 13.5469L78.3019 24.2602C78.7366 25.4591 79.2108 26.8822 79.5246 27.9692H79.6035C79.9593 26.8822 80.3548 25.4966 80.8261 24.1855L84.6262 13.5469H88.301L83.0841 26.4701C80.5939 32.6891 78.8957 35.8713 76.5235 37.821C74.8253 39.2453 73.1271 39.8069 72.2562 39.9561L71.3868 37.1848C72.5005 36.8347 73.5333 36.286 74.43 35.5685C75.6921 34.5766 76.6931 33.3196 77.3536 31.897C77.5126 31.5596 77.6253 31.2982 77.6253 31.1102C77.6253 30.9221 77.5466 30.6607 77.3877 30.2485L70.3203 13.5469H74.1134Z" fill="#292B2E"/>
</g>
</svg>
