<svg width="48" height="48" viewBox="0 0 48 48" fill="none" xmlns="http://www.w3.org/2000/svg">
<g id="done">
<mask id="mask0_2532_55056" style="mask-type:alpha" maskUnits="userSpaceOnUse" x="0" y="0" width="48" height="48">
<rect id="Bounding box" width="48" height="48" fill="#D9D9D9"/>
</mask>
<g mask="url(#mask0_2532_55056)">
<path id="new_releases" d="M17.4014 44.6337L13.6649 38.2667L6.33194 36.7352L7.13194 29.5002L2.39844 24.0002L7.13194 18.5332L6.33194 11.3002L13.6694 9.7702L17.3984 3.3667L23.9969 6.3727L30.5954 3.3667L34.3649 9.7667L41.6649 11.2982L40.8649 18.5337L45.5984 24.0002L40.8649 29.5007L41.6649 36.7337L34.3604 38.2637L30.5984 44.6337L23.9999 41.6277L17.4014 44.6337ZM18.7984 40.5002L23.9984 38.3002L29.3319 40.5002L32.4984 35.6337L38.1634 34.1942L37.5939 28.4357L41.4984 24.0002L37.5939 19.4642L38.1634 13.7057L32.4984 12.3667L29.2319 7.5002L23.9984 9.7002L18.6649 7.5002L15.4984 12.3667L9.83344 13.7057L10.4029 19.4642L6.49844 24.0002L10.4029 28.4357L9.83344 34.2947L15.4984 35.6337L18.7984 40.5002ZM21.8984 30.6337L33.0319 19.5667L30.6984 17.3667L21.9039 26.1002L17.3319 21.4002L14.9649 23.7337L21.8984 30.6337Z" fill="#00B5F2"/>
</g>
</g>
</svg>
