<svg width="75" height="32" viewBox="0 0 75 32" fill="none" xmlns="http://www.w3.org/2000/svg">
<g id="Button">
<path id="Vector" fill-rule="evenodd" clip-rule="evenodd" d="M34.548 24.2284V15.6712H38.9705C40.7828 15.6712 42.3124 15.0647 43.5594 13.8687L43.8586 13.5655C46.1364 11.0893 45.9867 7.23178 43.5594 4.94086C42.3456 3.72802 40.683 3.07105 38.9705 3.10475H31.8711V24.2284H34.548ZM34.5485 13.0773V5.69912H39.0381C40.0026 5.69912 40.9172 6.0697 41.599 6.7435C43.0458 8.1585 43.0789 10.5168 41.6822 11.9823C41.0004 12.7067 40.0359 13.1109 39.0381 13.0773H34.5485ZM56.3459 10.9047C55.1986 9.84343 53.6358 9.30439 51.6573 9.30439C49.1135 9.30439 47.2015 10.2477 45.9379 12.1175L48.2988 13.6167C49.1633 12.3365 50.3438 11.6964 51.8401 11.6964C52.7879 11.6964 53.7023 12.0501 54.4173 12.6902C55.1156 13.2967 55.5146 14.1726 55.5146 15.099V15.7223C54.4838 15.1496 53.1869 14.8465 51.5908 14.8465C49.7287 14.8465 48.2323 15.2844 47.1184 16.1772C46.0044 17.0699 45.4391 18.2492 45.4391 19.7483C45.4059 21.1127 45.9877 22.4098 47.0185 23.2858C48.066 24.2291 49.3962 24.7008 50.959 24.7008C52.8045 24.7008 54.2676 23.8753 55.3816 22.2246H55.4979V24.2291H58.0584V15.3181C58.0584 13.4483 57.4931 11.9659 56.3459 10.9047ZM49.0807 21.5674C48.5319 21.1631 48.1994 20.5061 48.1994 19.7987C48.1994 19.007 48.5653 18.35 49.2802 17.8278C50.012 17.3056 50.9265 17.0361 52.0074 17.0361C53.504 17.0193 54.668 17.3561 55.4995 18.0299C55.4995 19.1754 55.0505 20.1693 54.1692 21.0115C53.3709 21.82 52.2901 22.2749 51.1593 22.2749C50.411 22.2917 49.6794 22.0391 49.0807 21.5674ZM63.8104 30.5797L72.7553 9.77607H69.8457L65.7059 20.1526H65.6559L61.4163 9.77607H58.5067L64.3757 23.3026L61.0505 30.5797H63.8104Z" fill="#3C4043"/>
<path id="Vector_2" d="M25.305 13.8207C25.305 12.9953 25.2385 12.1699 25.1055 11.3613H13.8164V16.0275H20.2839C20.0179 17.5266 19.1534 18.8742 17.8898 19.7165V22.7486H21.7471C24.0082 20.643 25.305 17.5266 25.305 13.8207Z" fill="#4285F4"/>
<path id="Vector_3" d="M13.8195 25.6807C17.045 25.6807 19.7717 24.6026 21.7502 22.7497L17.8929 19.7176C16.8122 20.4587 15.4322 20.8799 13.8195 20.8799C10.6938 20.8799 8.05024 18.7405 7.10255 15.877H3.12891V19.01C5.1573 23.1035 9.29721 25.6807 13.8195 25.6807Z" fill="#34A853"/>
<path id="Vector_4" d="M7.09871 15.8769C6.59983 14.3777 6.59983 12.7437 7.09871 11.2277V8.11133H3.12442C1.41165 11.5309 1.41165 15.5736 3.12442 18.9933L7.09871 15.8769Z" fill="#FBBC04"/>
<path id="Vector_5" d="M13.8195 6.22151C15.5321 6.18781 17.178 6.84477 18.4084 8.04076L21.8333 4.57068C19.6553 2.51558 16.7956 1.38697 13.8195 1.42065C9.29721 1.42065 5.1573 4.0148 3.12891 8.10814L7.10255 11.2413C8.05024 8.36083 10.6938 6.22151 13.8195 6.22151Z" fill="#EA4335"/>
</g>
</svg>
