<svg width="155" height="36" viewBox="0 0 155 36" fill="none" xmlns="http://www.w3.org/2000/svg">
<g clip-path="url(#clip0_2430_1096)">
<rect width="36" height="36" rx="7.75385" fill="#00B5F2"/>
<path d="M8.86328 26.8617H22.1556L27.1402 9.13867H18.2787L12.7402 13.2925L8.86328 26.8617Z" fill="white"/>
<path fill-rule="evenodd" clip-rule="evenodd" d="M125.416 13.4143H121.694V29.0771H125.416V13.4143ZM125.54 6.34277H121.57V10.1267H125.54V6.34277ZM132.964 13.4143H130.266V29.0771H133.987V20.951C133.987 19.5863 134.339 18.4905 135.042 17.6634C135.766 16.8156 136.634 16.3918 137.647 16.3918C138.598 16.3918 139.332 16.7226 139.849 17.3843C140.387 18.0459 140.656 19.0281 140.656 20.3307V29.0771H144.378V20.951C144.378 19.607 144.719 18.5111 145.401 17.6634C146.104 16.8156 146.952 16.3918 147.944 16.3918C148.957 16.3918 149.723 16.7226 150.239 17.3843C150.777 18.0459 151.046 19.0281 151.046 20.3307V29.0771H154.768V19.4313C154.768 17.4049 154.24 15.8231 153.186 14.6859C152.131 13.5487 150.705 12.9801 148.906 12.9801C147.81 12.9801 146.786 13.2179 145.835 13.6934C144.884 14.169 144.109 14.8307 143.509 15.6784C143.034 14.81 142.372 14.1483 141.524 13.6934C140.697 13.2179 139.736 12.9801 138.64 12.9801C137.647 12.9801 136.706 13.1868 135.817 13.6004C134.949 13.9932 134.204 14.5619 133.584 15.3062L132.964 13.4143ZM109.546 29.5113C107.83 29.5113 106.341 29.2115 105.08 28.6118C103.839 27.9915 102.888 27.1334 102.226 26.0376C101.565 24.921 101.234 23.639 101.234 22.1917H105.235C105.235 23.3082 105.607 24.1973 106.352 24.859C107.096 25.5 108.161 25.8204 109.546 25.8204C110.849 25.8204 111.841 25.5517 112.524 25.0141C113.206 24.4765 113.547 23.7838 113.547 22.936C113.547 22.295 113.34 21.7678 112.927 21.3542C112.513 20.9407 111.986 20.6202 111.345 20.3928C110.704 20.1446 109.836 19.8862 108.74 19.6174C107.313 19.2659 106.103 18.8833 105.111 18.4698C104.139 18.0563 103.312 17.4256 102.63 16.5779C101.968 15.7301 101.637 14.6239 101.637 13.2592C101.637 12.0393 101.937 10.9537 102.537 10.0026C103.136 9.03079 104.015 8.27608 105.173 7.73848C106.331 7.20088 107.716 6.93208 109.329 6.93208C111.769 6.93208 113.65 7.55239 114.974 8.793C116.297 10.0129 116.959 11.6774 116.959 13.7865H113.02C113.02 12.8353 112.689 12.0703 112.027 11.4913C111.366 10.9124 110.425 10.6229 109.205 10.6229C108.026 10.6229 107.137 10.8607 106.538 11.3363C105.938 11.7912 105.638 12.3908 105.638 13.1352C105.638 13.9622 106.01 14.5825 106.755 14.9961C107.52 15.3889 108.667 15.7715 110.197 16.1437C111.707 16.5158 112.958 16.919 113.95 17.3533C114.943 17.7668 115.791 18.4078 116.494 19.2762C117.197 20.1446 117.548 21.3025 117.548 22.7499C117.548 24.0319 117.228 25.1898 116.587 26.2236C115.966 27.2368 115.046 28.0432 113.826 28.6429C112.627 29.2218 111.2 29.5113 109.546 29.5113ZM90.8356 27.4642C91.9108 28.5394 93.4512 29.077 95.4568 29.077H98.2172V25.6964H95.9221C93.9578 25.6964 92.9756 24.7039 92.9756 22.7189V16.7019H98.1552V13.4143H92.9756V9.4443H89.8431L89.3468 13.4143H86.0592V16.7019H89.2538V22.8119C89.2538 24.8383 89.781 26.389 90.8356 27.4642ZM76.135 29.5113C74.4808 29.5113 73.0128 29.1598 71.7308 28.4568C70.4488 27.7331 69.446 26.7406 68.7223 25.4793C67.9986 24.218 67.6368 22.812 67.6368 21.2612C67.6368 19.6897 67.9883 18.2734 68.6913 17.0121C69.415 15.7508 70.4178 14.7686 71.6998 14.0656C72.9817 13.3419 74.4188 12.9801 76.0109 12.9801C77.6237 12.9801 79.0608 13.3316 80.3221 14.0346C81.604 14.7376 82.5965 15.7198 83.2995 16.9811C84.0232 18.2217 84.3851 19.6277 84.3851 21.1991C84.3851 21.6747 84.3541 22.0883 84.292 22.4398H71.4206C71.6274 23.6804 72.1443 24.6419 72.9714 25.3242C73.8192 26.0065 74.8944 26.3477 76.197 26.3477C78.0166 26.3477 79.3399 25.6964 80.167 24.3937H84.0129C83.3926 25.9859 82.4001 27.2368 81.0354 28.1466C79.6914 29.0564 78.0579 29.5113 76.135 29.5113ZM80.5702 19.7104C80.3221 18.5939 79.8051 17.7254 79.0194 17.1051C78.2337 16.4641 77.2412 16.1436 76.0419 16.1436C74.9254 16.1436 73.9536 16.4641 73.1265 17.1051C72.3201 17.7254 71.7825 18.5939 71.5137 19.7104H80.5702ZM51.9054 28.5498C53.1047 29.1908 54.4694 29.5113 55.9995 29.5113C57.5709 29.5113 58.9356 29.1908 60.0935 28.5498C61.2721 27.9088 62.1819 26.999 62.8229 25.8204C63.4638 24.6419 63.7843 23.2668 63.7843 21.6954V10.6533V7.36629H51.6129L50.6714 10.6533H59.8764V21.6024C59.8764 22.9257 59.5249 23.9595 58.8219 24.7039C58.1189 25.4483 57.1781 25.8204 55.9995 25.8204C54.8002 25.8204 53.8491 25.4483 53.1461 24.7039C52.4637 23.9595 52.1225 22.905 52.1225 21.5403V21.0441H48.1836V21.7574C48.1836 23.2668 48.5041 24.6108 49.1451 25.7894C49.8067 26.968 50.7269 27.8881 51.9054 28.5498Z" fill="#00141A"/>
</g>
<defs>
<clipPath id="clip0_2430_1096">
<rect width="154.8" height="36" fill="white"/>
</clipPath>
</defs>
</svg>
