<svg width="65" height="40" viewBox="0 0 65 40" fill="none" xmlns="http://www.w3.org/2000/svg">
<g id="Switch">
<path id="Vector" d="M40.8744 4.77734H23.9297V35.2235H40.8744V4.77734Z" fill="#FF5F00"/>
<path id="Vector_2" d="M24.9992 20.0018C24.9992 13.8158 27.9042 8.32915 32.3692 4.77808C29.0884 2.19655 24.9458 0.636719 20.4276 0.636719C9.72331 0.636719 1.0625 9.29751 1.0625 20.0018C1.0625 30.7059 9.72331 39.3667 20.4276 39.3667C24.9458 39.3667 29.0884 37.807 32.3692 35.2242C27.9042 31.7276 24.9992 26.1876 24.9992 20.0018Z" fill="#EB001B"/>
<path id="Vector_3" d="M63.7324 20.0018C63.7324 30.7059 55.0728 39.3667 44.3675 39.3667C39.8492 39.3667 35.7078 37.807 32.4258 35.2242C36.9452 31.6743 39.7958 26.1876 39.7958 20.0018C39.7958 13.8158 36.8907 8.32915 32.4258 4.77808C35.7078 2.19655 39.8492 0.636719 44.3675 0.636719C55.0728 0.636719 63.7324 9.35085 63.7324 20.0018Z" fill="#F79E1B"/>
</g>
</svg>
