<svg width="48" height="48" viewBox="0 0 48 48" fill="none" xmlns="http://www.w3.org/2000/svg">
<g id="Frame 1244831173">
<g id="Group 1244831078">
<path id="Subtract" fill-rule="evenodd" clip-rule="evenodd" d="M5.72523 5.97877L41.7252 41.9788L41.7312 41.9728L44.2069 44.4485L41.8734 46.7985L38.5124 43.4302C37.9678 43.8091 37.3548 43.9985 36.6734 43.9985H11.3404C10.4404 43.9985 9.65977 43.668 8.99844 43.007C8.33744 42.3457 8.00694 41.565 8.00694 40.665V12.9316L1.77344 6.69854L4.12344 4.36504L5.7312 5.9728L5.72523 5.97877ZM9.13819 4.67391C9.7127 4.22351 10.3723 3.99854 11.1291 3.99854H36.6734C37.5901 3.99854 38.3749 4.32904 39.0279 4.99004C39.6806 5.65137 40.0069 6.43203 40.0069 7.33203V35.5427L36.6734 32.2092V7.33203L11.796 7.3317L9.13819 4.67391ZM20.2141 15.7499C21.2479 14.9052 22.5687 14.3985 24.0078 14.3985C27.3215 14.3985 30.0078 17.0848 30.0078 20.3985C30.0078 21.8376 29.5012 23.1584 28.6565 24.1922L20.2141 15.7499ZM11.3404 16.1989L25.11 29.9985H17.3375V33.3345H28.4387L35.7533 40.665H11.3404V16.1989Z" fill="#00B5F2"/>
</g>
</g>
</svg>
