<svg width="48" height="48" viewBox="0 0 48 48" fill="none" xmlns="http://www.w3.org/2000/svg">
<g id="no sim">
<mask id="mask0_2532_55061" style="mask-type:alpha" maskUnits="userSpaceOnUse" x="0" y="0" width="48" height="48">
<rect id="Bounding box" width="48" height="48" fill="#D9D9D9"/>
</mask>
<g mask="url(#mask0_2532_55061)">
<path id="no_sim" d="M39.9991 35.5495L36.6656 32.216V7.33301H21.4656L16.6326 12.166L14.1991 9.76601L19.9656 3.99951H36.6656C37.5823 3.99951 38.3671 4.33001 39.0201 4.99101C39.6728 5.65235 39.9991 6.43301 39.9991 7.33301V35.5495ZM41.8656 46.7995L12.0656 16.966L11.3326 17.6995V40.666H36.6656V36.916L39.9991 40.2495V40.666C39.9991 41.566 39.6686 42.3467 39.0076 43.008C38.3463 43.669 37.5656 43.9995 36.6656 43.9995H11.3326C10.4326 43.9995 9.65196 43.669 8.99063 43.008C8.32963 42.3467 7.99913 41.566 7.99913 40.666V16.166L9.63263 14.566L1.76562 6.69951L4.11563 4.36601L44.1991 44.4495L41.8656 46.7995Z" fill="#00B5F2"/>
</g>
</g>
</svg>
