<svg width="25" height="24" viewBox="0 0 25 24" fill="none" xmlns="http://www.w3.org/2000/svg">
<g id="no_transfer">
<mask id="mask0_2640_32159" style="mask-type:alpha" maskUnits="userSpaceOnUse" x="0" y="0" width="25" height="24">
<rect id="Bounding box" x="0.5" width="24" height="24" fill="#D9D9D9"/>
</mask>
<g mask="url(#mask0_2640_32159)">
<path id="no_transfer_2" d="M20.9758 23.3L16.8008 19.125H19.6508V20C19.6508 20.2833 19.5549 20.5208 19.3633 20.7125C19.1716 20.9042 18.9341 21 18.6508 21H17.5008C17.2174 21 16.9799 20.9042 16.7883 20.7125C16.5966 20.5208 16.5008 20.2833 16.5008 20V19H8.50078V20C8.50078 20.2833 8.40495 20.5208 8.21328 20.7125C8.02161 20.9042 7.78411 21 7.50078 21H6.50078C6.21745 21 5.97995 20.9042 5.78828 20.7125C5.59661 20.5208 5.50078 20.2833 5.50078 20V17.95C5.20078 17.6167 4.95911 17.2458 4.77578 16.8375C4.59245 16.4292 4.50078 15.9833 4.50078 15.5V6.825L1.17578 3.5L2.60078 2.075L22.4008 21.875L20.9758 23.3ZM8.50078 17H14.6758L9.67578 12H6.50078V15C6.50078 15.55 6.69661 16.0208 7.08828 16.4125C7.47995 16.8042 7.95078 17 8.50078 17ZM20.2258 16.85L18.5008 15.125V12H15.3758L13.3758 10H18.5008V7H10.3758L8.37578 5H18.1508C17.9008 4.71667 17.3633 4.47917 16.5383 4.2875C15.7133 4.09583 14.3841 4 12.5508 4C11.3674 4 10.4049 4.05 9.66328 4.15C8.92161 4.25 8.33411 4.375 7.90078 4.525L6.37578 3C7.02578 2.66667 7.85495 2.41667 8.86328 2.25C9.87161 2.08333 11.0841 2 12.5008 2C15.3674 2 17.4174 2.30833 18.6508 2.925C19.8841 3.54167 20.5008 4.56667 20.5008 6V15.5C20.5008 15.7333 20.4758 15.9625 20.4258 16.1875C20.3758 16.4125 20.3091 16.6333 20.2258 16.85ZM9.00078 16C9.41745 16 9.77161 15.8542 10.0633 15.5625C10.3549 15.2708 10.5008 14.9167 10.5008 14.5C10.5008 14.0833 10.3549 13.7292 10.0633 13.4375C9.77161 13.1458 9.41745 13 9.00078 13C8.58412 13 8.22995 13.1458 7.93828 13.4375C7.64662 13.7292 7.50078 14.0833 7.50078 14.5C7.50078 14.9167 7.64662 15.2708 7.93828 15.5625C8.22995 15.8542 8.58412 16 9.00078 16ZM6.50078 10H7.67578L6.50078 8.825V10Z" fill="#00B5F2"/>
</g>
</g>
</svg>
