<svg width="146" height="36" viewBox="0 0 146 36" fill="none" xmlns="http://www.w3.org/2000/svg">
<g id="Button container">
<g id="Button container_2">
<mask id="mask0_2532_55076" style="mask-type:luminance" maskUnits="userSpaceOnUse" x="1" y="0" width="145" height="36">
<g id="Text input">
<path id="Vector" d="M145.133 0.816406H1.13281V35.18H145.133V0.816406Z" fill="white"/>
</g>
</mask>
<g mask="url(#mask0_2532_55076)">
<g id="Button">
<path id="Vector_2" d="M27.3231 3.06559C25.64 1.31035 22.6013 0.558594 18.7154 0.558594H7.43802C7.05336 0.559076 6.68147 0.684959 6.38893 0.913694C6.09638 1.14243 5.90233 1.45907 5.84149 1.80691L1.13474 29.0838C1.11115 29.2111 1.11821 29.3417 1.15544 29.4662C1.19267 29.5907 1.25916 29.7063 1.35025 29.8048C1.44135 29.9033 1.55486 29.9825 1.68284 30.0367C1.81081 30.0908 1.95017 30.1186 2.09116 30.1183H9.05716L10.8156 19.9352L10.7629 20.2525C10.8221 19.9056 11.0149 19.5895 11.3062 19.3612C11.5976 19.1329 11.9684 19.0076 12.3519 19.0076H15.6579C22.1607 19.0076 27.2479 16.5938 28.7352 9.59344C28.7803 9.38654 28.818 9.18652 28.8518 8.98996C29.2925 6.40366 28.8518 4.64496 27.3231 3.0518" fill="#8A9099"/>
<path id="Vector_3" d="M112.569 16.0429C112.144 18.6016 110.009 18.6016 107.945 18.6016H106.77L107.595 13.8221C107.618 13.6823 107.696 13.5549 107.813 13.4631C107.931 13.3713 108.081 13.3213 108.235 13.3221H108.773C110.178 13.3221 111.507 13.3221 112.192 14.0531C112.599 14.4911 112.723 15.1428 112.569 16.0429ZM111.669 9.36328H103.886C103.628 9.36295 103.378 9.44728 103.182 9.60098C102.986 9.75468 102.856 9.96762 102.817 10.2012L99.6687 28.4779C99.6535 28.5628 99.6586 28.6499 99.6836 28.7328C99.7088 28.816 99.7533 28.8929 99.8142 28.9585C99.8752 29.0241 99.951 29.0768 100.036 29.113C100.122 29.1491 100.215 29.1676 100.309 29.1675H104.311C104.493 29.1696 104.668 29.1117 104.807 29.0046C104.945 28.8976 105.037 28.7485 105.065 28.5847L105.961 23.4122C106 23.1793 106.129 22.9673 106.325 22.8143C106.52 22.6613 106.769 22.5773 107.026 22.5777H109.493C114.621 22.5777 117.581 20.3016 118.353 15.798C118.703 13.829 118.353 12.2806 117.362 11.1944C116.252 10.0047 114.29 9.37362 111.684 9.37362" fill="#179BD7"/>
<path id="Vector_4" d="M57.0338 16.0463C56.6084 18.605 54.4734 18.605 52.41 18.605H51.2202L52.0447 13.8255C52.0683 13.6857 52.1459 13.5583 52.2634 13.4665C52.3809 13.3747 52.5304 13.3247 52.6849 13.3255H53.2233C54.6279 13.3255 55.957 13.3255 56.6423 14.0566C57.0527 14.4945 57.1733 15.1463 57.0188 16.0463H57.0338ZM56.1227 9.36673H48.3508C48.0928 9.36641 47.843 9.45073 47.6468 9.60443C47.4506 9.75814 47.3211 9.97108 47.2815 10.2047L44.1336 28.4812C44.1184 28.5663 44.1234 28.6534 44.1485 28.7363C44.1737 28.8193 44.2182 28.8964 44.2792 28.962C44.3401 29.0276 44.4159 29.0803 44.5013 29.1165C44.5867 29.1525 44.6796 29.1711 44.7737 29.171H48.4902C48.7478 29.1714 48.9972 29.0875 49.1932 28.9345C49.3893 28.7815 49.5192 28.5694 49.5596 28.3364L50.4105 23.4018C50.4503 23.1684 50.58 22.9559 50.7762 22.8029C50.9724 22.6497 51.2221 22.5661 51.4799 22.5672H53.9426C59.071 22.5672 62.0306 20.2912 62.8025 15.7877C63.1527 13.8186 62.8025 12.2703 61.8122 11.184C60.7052 9.99434 58.7434 9.36328 56.1378 9.36328" fill="#253B80"/>
<path id="Vector_5" d="M74.2049 22.6104C74.0629 23.532 73.5559 24.3735 72.7803 24.9751C72.0048 25.5766 71.0148 25.896 69.9988 25.8725C69.5328 25.9161 69.062 25.8556 68.6272 25.6957C68.1923 25.5359 67.8064 25.2816 67.5025 24.955C67.1988 24.6282 66.9863 24.2387 66.8832 23.8201C66.7803 23.4014 66.7899 22.9661 66.9113 22.5516C67.0522 21.6326 67.5538 20.792 68.3224 20.1872C69.091 19.5824 70.0738 19.2547 71.0872 19.2653C71.5507 19.2429 72.014 19.3147 72.4437 19.4757C72.8734 19.6368 73.2588 19.8829 73.5723 20.1964C73.8644 20.5317 74.0724 20.9218 74.1817 21.3389C74.291 21.756 74.299 22.1901 74.2049 22.6104ZM79.4012 15.9652H75.6885C75.534 15.9644 75.3844 16.0145 75.2669 16.1062C75.1494 16.198 75.0717 16.3255 75.0483 16.4653L74.8827 17.4205L74.6228 17.0757C73.8169 16.0032 72.0171 15.6445 70.2173 15.6445C66.0979 15.6445 62.581 18.5033 61.8957 22.5104C61.5418 24.5138 62.0464 26.4242 63.2851 27.7589C64.4147 28.983 66.0452 29.4829 67.9807 29.4829C68.9401 29.4913 69.8915 29.3229 70.7784 28.9874C71.6653 28.6521 72.4694 28.157 73.1431 27.5312L72.9736 28.4795C72.9588 28.5648 72.9646 28.6518 72.9901 28.7348C73.0158 28.8177 73.0606 28.8948 73.1218 28.9603C73.183 29.0259 73.2591 29.0784 73.3447 29.1146C73.4303 29.1506 73.5232 29.1692 73.6175 29.1692H76.9725C77.2301 29.1697 77.4793 29.0858 77.6753 28.9328C77.8715 28.7798 78.0014 28.5677 78.0419 28.3347L80.06 16.6445C80.0747 16.5594 80.0692 16.4722 80.0435 16.3892C80.0179 16.3063 79.9729 16.2293 79.9117 16.1638C79.8505 16.0982 79.7746 16.0456 79.689 16.0095C79.6034 15.9735 79.5103 15.9548 79.4163 15.9549" fill="#253B80"/>
<path id="Vector_6" d="M129.749 22.6104C129.607 23.5326 129.099 24.3747 128.323 24.9762C127.546 25.5779 126.556 25.8968 125.539 25.8725C125.073 25.9153 124.603 25.8541 124.168 25.6941C123.734 25.5339 123.348 25.2798 123.045 24.9531C122.741 24.6267 122.529 24.2376 122.425 23.8193C122.322 23.4011 122.331 22.9661 122.451 22.5516C122.593 21.6323 123.096 20.7917 123.865 20.1869C124.634 19.5821 125.617 19.2545 126.631 19.2653C127.094 19.2434 127.558 19.3154 127.987 19.4764C128.417 19.6374 128.802 19.8832 129.116 20.1964C129.408 20.5319 129.616 20.9218 129.726 21.3389C129.835 21.756 129.843 22.1901 129.749 22.6104ZM134.945 15.9652H131.217C131.063 15.9644 130.913 16.0145 130.796 16.1062C130.678 16.198 130.601 16.3255 130.577 16.4653L130.411 17.4205L130.152 17.0757C129.342 16.0032 127.542 15.6445 125.746 15.6445C121.627 15.6445 118.11 18.5033 117.425 22.5104C117.067 24.5138 117.575 26.4242 118.814 27.7589C119.944 28.983 121.574 29.4829 123.509 29.4829C124.468 29.4923 125.42 29.3242 126.306 28.9888C127.192 28.6535 127.996 28.1576 128.668 27.5312L128.502 28.4795C128.488 28.5648 128.493 28.6518 128.519 28.7348C128.544 28.8177 128.589 28.8948 128.651 28.9603C128.712 29.0259 128.788 29.0784 128.873 29.1146C128.959 29.1506 129.052 29.1692 129.146 29.1692H132.501C132.759 29.1697 133.008 29.0858 133.204 28.9328C133.4 28.7798 133.53 28.5677 133.571 28.3347L135.585 16.6445C135.6 16.5596 135.595 16.4725 135.57 16.3896C135.545 16.3065 135.5 16.2295 135.44 16.1639C135.379 16.0982 135.303 16.0455 135.217 16.0095C135.132 15.9734 135.039 15.9547 134.945 15.9549" fill="#179BD7"/>
<path id="Vector_7" d="M99.2618 15.9648H95.4965C95.3198 15.9649 95.1457 16.0045 94.9894 16.0803C94.8333 16.156 94.6996 16.2655 94.6003 16.3993L89.4492 23.3858L87.2578 16.6855C87.1918 16.4811 87.0552 16.3016 86.8685 16.1742C86.6819 16.0467 86.4551 15.9781 86.2223 15.9786H82.5397C82.4364 15.9784 82.3346 16.0009 82.2427 16.044C82.1509 16.0872 82.0715 16.1499 82.0114 16.2268C81.9514 16.3038 81.9123 16.3928 81.8974 16.4864C81.8825 16.58 81.8923 16.6755 81.9259 16.7649L86.049 27.8584L82.1707 32.8724C82.1014 32.9611 82.0604 33.0655 82.0517 33.1743C82.043 33.283 82.0672 33.3918 82.1217 33.4887C82.1762 33.5855 82.2589 33.6669 82.3605 33.7236C82.4621 33.7804 82.5788 33.8104 82.6979 33.8104H86.4443C86.6189 33.8104 86.7908 33.7718 86.9454 33.698C87.1002 33.6242 87.2331 33.5171 87.3331 33.3862L99.7891 16.8994C99.8561 16.8099 99.8954 16.7055 99.9025 16.5971C99.9095 16.4888 99.8843 16.3806 99.8291 16.2845C99.7742 16.1884 99.6917 16.1078 99.5902 16.0515C99.4889 15.9951 99.3729 15.9652 99.2543 15.9648" fill="#253B80"/>
<path id="Vector_8" d="M139.327 9.86859L136.134 28.4901C136.118 28.575 136.123 28.6621 136.149 28.745C136.174 28.8282 136.218 28.9051 136.279 28.9707C136.34 29.0363 136.416 29.089 136.501 29.1252C136.587 29.1612 136.68 29.1798 136.774 29.1796H139.986C140.243 29.1801 140.493 29.0964 140.689 28.9434C140.885 28.7904 141.015 28.5781 141.055 28.3453L144.207 10.0686C144.221 9.98339 144.216 9.89629 144.19 9.8133C144.165 9.73028 144.12 9.65336 144.058 9.5878C143.997 9.52224 143.921 9.46961 143.836 9.43356C143.75 9.3975 143.657 9.37886 143.563 9.37891H139.967C139.812 9.37892 139.662 9.42972 139.545 9.52207C139.428 9.61443 139.35 9.74226 139.327 9.88238" fill="#179BD7"/>
<path id="Vector_9" d="M27.3231 3.06559C25.64 1.31035 22.6013 0.558594 18.7154 0.558594H7.43802C7.05336 0.559076 6.68147 0.684959 6.38893 0.913694C6.09638 1.14243 5.90233 1.45907 5.84149 1.80691L1.13474 29.0838C1.11115 29.2111 1.11821 29.3417 1.15544 29.4662C1.19267 29.5907 1.25916 29.7063 1.35025 29.8048C1.44135 29.9033 1.55486 29.9825 1.68284 30.0367C1.81081 30.0908 1.95017 30.1186 2.09116 30.1183H9.05716L10.8156 19.9352L10.7629 20.2525C10.8221 19.9056 11.0149 19.5895 11.3062 19.3612C11.5976 19.1329 11.9684 19.0076 12.3519 19.0076H15.6579C22.1607 19.0076 27.2479 16.5938 28.7352 9.59344C28.7803 9.38654 28.818 9.18652 28.8518 8.98996C29.2925 6.40366 28.8518 4.64496 27.3231 3.0518" fill="#8A9099"/>
<path id="Vector_10" d="M12.6945 9.03824C12.73 8.83079 12.8202 8.6344 12.9573 8.46613C13.0945 8.29786 13.2744 8.1628 13.4815 8.07268C13.6703 7.98841 13.8777 7.94475 14.0877 7.9451H22.9326C23.9082 7.93901 24.8827 8.00358 25.8471 8.1382C26.1031 8.17613 26.3516 8.22097 26.6002 8.26924C26.8488 8.31752 27.0746 8.37269 27.3006 8.43476L27.6357 8.52787C28.0572 8.65521 28.4666 8.8144 28.8594 9.00376C29.3 6.41745 28.8594 4.65875 27.3307 3.06559C25.6475 1.31035 22.6125 0.558594 18.7229 0.558594H7.43802C7.05336 0.559076 6.68147 0.684959 6.38893 0.913695C6.09638 1.14243 5.90233 1.45907 5.84149 1.80691L1.13474 29.0804C1.11115 29.2077 1.11821 29.3383 1.15544 29.4628C1.19267 29.5873 1.25916 29.7028 1.35025 29.8014C1.44135 29.8999 1.55486 29.9791 1.68284 30.0332C1.81081 30.0874 1.95017 30.1152 2.09116 30.1149H9.05716L10.8156 19.9352L12.6945 9.03824Z" fill="#253B80"/>
<path id="Vector_11" d="M28.8506 9.00391C28.8167 9.20047 28.7791 9.40048 28.7339 9.60738C27.2277 16.6008 22.1595 19.0216 15.6566 19.0216H12.3468C11.9616 19.0221 11.5894 19.1494 11.2983 19.3806C11.0073 19.6117 10.8168 19.9311 10.7616 20.2802L9.06715 30.1221L8.58519 32.9117C8.56549 33.0225 8.57238 33.1359 8.60537 33.2439C8.63837 33.3519 8.69668 33.4522 8.77624 33.5375C8.8558 33.6229 8.9547 33.6913 9.06605 33.7381C9.17742 33.7847 9.29858 33.8088 9.42111 33.8083H15.2914C15.6272 33.8081 15.9518 33.6982 16.2072 33.4985C16.4625 33.2989 16.6317 33.0224 16.6846 32.7186L16.741 32.4428L17.848 26.0218L17.9197 25.677C17.9724 25.3733 18.1418 25.0968 18.397 24.8972C18.6523 24.6974 18.9771 24.5876 19.3129 24.5872H20.1939C25.8796 24.5872 30.3304 22.4699 31.6332 16.3525C32.1755 13.7972 31.8931 11.6626 30.4585 10.1626C30.0028 9.69745 29.4579 9.31288 28.8506 9.02804" fill="#179BD7"/>
<path id="Vector_12" d="M27.2957 8.43928C27.0697 8.37721 26.8362 8.32203 26.5953 8.27376C26.3543 8.22549 26.1057 8.18065 25.8421 8.14272C24.8778 8.0081 23.9033 7.94352 22.9277 7.94961H14.0903C13.8803 7.94927 13.6729 7.99293 13.4841 8.0772C13.277 8.16731 13.0971 8.30238 12.9599 8.47065C12.8228 8.63891 12.7326 8.83531 12.6971 9.04275L10.8144 19.9536L10.7617 20.2707C10.8202 19.9241 11.0121 19.6081 11.3029 19.3797C11.5936 19.1514 11.964 19.0259 12.347 19.0259H15.6568C22.1596 19.0259 27.2466 16.612 28.734 9.61175C28.7792 9.40485 28.8168 9.20483 28.8507 9.00827C28.4585 8.81864 28.0491 8.66055 27.627 8.53584L27.2919 8.43928" fill="#222D65"/>
</g>
</g>
</g>
</g>
</svg>
