<svg width="25" height="24" viewBox="0 0 25 24" fill="none" xmlns="http://www.w3.org/2000/svg">
<g id="scan">
<mask id="mask0_2640_32164" style="mask-type:alpha" maskUnits="userSpaceOnUse" x="0" y="0" width="25" height="24">
<rect id="Bounding box" x="0.5" width="24" height="24" fill="#D9D9D9"/>
</mask>
<g mask="url(#mask0_2640_32164)">
<path id="scan_2" d="M6.5 22C5.95 22 5.47917 21.8042 5.0875 21.4125C4.69583 21.0208 4.5 20.55 4.5 20V17H6.5V20H18.5V17H20.5V20C20.5 20.55 20.3042 21.0208 19.9125 21.4125C19.5208 21.8042 19.05 22 18.5 22H6.5ZM4.5 11V4C4.5 3.45 4.69583 2.97917 5.0875 2.5875C5.47917 2.19583 5.95 2 6.5 2H14.5L20.5 8V11H18.5V9H13.5V4H6.5V11H4.5ZM1.5 15V13H23.5V15H1.5Z" fill="#00B5F2"/>
</g>
</g>
</svg>
