<svg width="83" height="28" viewBox="0 0 83 28" fill="none" xmlns="http://www.w3.org/2000/svg">
<g id="Button container" clip-path="url(#clip0_2532_55108)">
<g id="Button container_2">
<mask id="mask0_2532_55108" style="mask-type:luminance" maskUnits="userSpaceOnUse" x="1" y="0" width="82" height="28">
<g id="Text input">
<path id="Vector" d="M82.3016 0.699219H1.10156V27.2992H82.3016V0.699219Z" fill="white"/>
</g>
</mask>
<g mask="url(#mask0_2532_55108)">
<g id="Button">
<path id="Vector_2" fill-rule="evenodd" clip-rule="evenodd" d="M41.3066 1.16267L35.8809 26.526H29.3188L34.7464 1.16267H41.3066ZM68.9115 17.5391L72.3659 8.01622L74.3542 17.5391H68.9115ZM76.2335 26.526H82.3016L77.0047 1.16267H71.4045C70.1449 1.16267 69.0829 1.89506 68.6114 3.02271L58.7663 26.526H65.6543L67.0228 22.7372H75.4404L76.2335 26.526ZM59.1072 18.2446C59.1366 11.5512 49.8514 11.1816 49.9151 8.19072C49.9351 7.28133 50.8014 6.31441 52.6977 6.06673C53.6364 5.94414 56.2295 5.84908 59.1666 7.20127L60.3193 1.82312C58.7394 1.25023 56.7093 0.699219 54.1806 0.699219C47.6961 0.699219 43.1304 4.14726 43.0941 9.08259C43.0509 12.7358 46.3519 14.7716 48.8388 15.9862C51.3943 17.2289 52.2511 18.0263 52.2417 19.1378C52.223 20.8402 50.2028 21.5907 48.3146 21.6201C45.0161 21.6714 43.101 20.7282 41.5756 20.0178L40.3878 25.5754C41.9195 26.2796 44.7496 26.8925 47.6842 26.9232C54.5778 26.9232 59.0859 23.5196 59.1072 18.2446ZM31.9307 1.16267L21.3001 26.526H14.3646L9.13343 6.28438C8.81572 5.0385 8.5399 4.58069 7.57422 4.05657C5.99749 3.19972 3.39254 2.39728 1.10156 1.89818L1.25605 1.16267H12.4214C13.8436 1.16267 15.1238 2.10896 15.4467 3.74822L18.2098 18.426L25.0389 1.16267H31.9307Z" fill="url(#paint0_linear_2532_55108)"/>
</g>
</g>
</g>
</g>
<defs>
<linearGradient id="paint0_linear_2532_55108" x1="1.10156" y1="13.8112" x2="82.3021" y2="13.8112" gradientUnits="userSpaceOnUse">
<stop stop-color="#231F5E"/>
<stop offset="1" stop-color="#024DA0"/>
</linearGradient>
<clipPath id="clip0_2532_55108">
<rect width="82.6" height="28" fill="white" transform="translate(0.398438)"/>
</clipPath>
</defs>
</svg>
