<svg width="48" height="48" viewBox="0 0 48 48" fill="none" xmlns="http://www.w3.org/2000/svg">
<g id="wallet">
<mask id="mask0_2532_55051" style="mask-type:alpha" maskUnits="userSpaceOnUse" x="0" y="0" width="48" height="48">
<rect id="Bounding box" width="48" height="48" fill="#D9D9D9"/>
</mask>
<g mask="url(#mask0_2532_55051)">
<path id="account_balance_wallet" d="M9.3335 42C8.41683 42 7.632 41.6737 6.979 41.021C6.32633 40.368 6 39.5832 6 38.6665V9.3335C6 8.41683 6.32633 7.632 6.979 6.979C7.632 6.32633 8.41683 6 9.3335 6H38.6665C39.5832 6 40.368 6.32633 41.021 6.979C41.6737 7.632 42 8.41683 42 9.3335V15.4665H38.6665V9.3335H9.3335V38.6665H38.6665V32.5665H42V38.6665C42 39.5832 41.6737 40.368 41.021 41.021C40.368 41.6737 39.5832 42 38.6665 42H9.3335ZM26.6 33.5665C25.555 33.5665 24.6605 33.1977 23.9165 32.46C23.1722 31.7223 22.8 30.8357 22.8 29.8V18.2335C22.8 17.1975 23.1722 16.3107 23.9165 15.573C24.6605 14.8353 25.555 14.4665 26.6 14.4665H40.2665C41.3115 14.4665 42.2062 14.8353 42.9505 15.573C43.6945 16.3107 44.0665 17.1975 44.0665 18.2335V29.8C44.0665 30.8357 43.6945 31.7223 42.9505 32.46C42.2062 33.1977 41.3115 33.5665 40.2665 33.5665H26.6ZM40.7335 30.2335V17.8H26.1335V30.2335H40.7335ZM32.408 27.1335C33.2803 27.1335 34.0193 26.8255 34.625 26.2095C35.2307 25.5938 35.5335 24.8462 35.5335 23.9665C35.5335 23.1055 35.2252 22.3737 34.6085 21.771C33.9918 21.168 33.2557 20.8665 32.4 20.8665C31.5443 20.8665 30.8082 21.168 30.1915 21.771C29.5748 22.3737 29.2665 23.1055 29.2665 23.9665C29.2665 24.8462 29.572 25.5938 30.183 26.2095C30.7937 26.8255 31.5353 27.1335 32.408 27.1335Z" fill="#00B5F2"/>
</g>
</g>
</svg>
