<svg width="32" height="32" viewBox="0 0 32 32" fill="none" xmlns="http://www.w3.org/2000/svg">
<g id="account_balance_wallet">
<mask id="mask0_1710_51715" style="mask-type:alpha" maskUnits="userSpaceOnUse" x="0" y="0" width="32" height="32">
<rect id="Bounding box" width="32" height="32" fill="#D9D9D9"/>
</mask>
<g mask="url(#mask0_1710_51715)">
<path id="account_balance_wallet_2" d="M6.22233 28C5.61122 28 5.088 27.7824 4.65267 27.3473C4.21756 26.912 4 26.3888 4 25.7777V6.22233C4 5.61122 4.21756 5.088 4.65267 4.65267C5.088 4.21756 5.61122 4 6.22233 4H25.7777C26.3888 4 26.912 4.21756 27.3473 4.65267C27.7824 5.088 28 5.61122 28 6.22233V10.311H25.7777V6.22233H6.22233V25.7777H25.7777V21.711H28V25.7777C28 26.3888 27.7824 26.912 27.3473 27.3473C26.912 27.7824 26.3888 28 25.7777 28H6.22233ZM17.7333 22.3777C17.0367 22.3777 16.4403 22.1318 15.9443 21.64C15.4481 21.1482 15.2 20.5571 15.2 19.8667V12.1557C15.2 11.465 15.4481 10.8738 15.9443 10.382C16.4403 9.89022 17.0367 9.64433 17.7333 9.64433H26.8443C27.541 9.64433 28.1374 9.89022 28.6337 10.382C29.1297 10.8738 29.3777 11.465 29.3777 12.1557V19.8667C29.3777 20.5571 29.1297 21.1482 28.6337 21.64C28.1374 22.1318 27.541 22.3777 26.8443 22.3777H17.7333ZM27.1557 20.1557V11.8667H17.4223V20.1557H27.1557ZM21.6053 18.089C22.1869 18.089 22.6796 17.8837 23.0833 17.473C23.4871 17.0626 23.689 16.5641 23.689 15.9777C23.689 15.4037 23.4834 14.9158 23.0723 14.514C22.6612 14.112 22.1704 13.911 21.6 13.911C21.0296 13.911 20.5388 14.112 20.1277 14.514C19.7166 14.9158 19.511 15.4037 19.511 15.9777C19.511 16.5641 19.7147 17.0626 20.122 17.473C20.5291 17.8837 21.0236 18.089 21.6053 18.089Z" fill="#00B5F2"/>
</g>
</g>
</svg>
