<svg width="32" height="24" viewBox="0 0 32 24" fill="none" xmlns="http://www.w3.org/2000/svg">
<path d="M8.87653 0.962973C9.6015 0.341569 10.5249 0 11.4797 0H29.6391C30.875 0 31.815 1.10973 31.6119 2.3288L28.2785 22.3288C28.1178 23.2932 27.2834 24 26.3057 24H2.36092C1.12504 24 0.184956 22.8903 0.388133 21.6712L2 12L2.76107 7.43359C2.91542 6.50748 3.39062 5.66518 4.10348 5.05416L8.87653 0.962973Z" fill="#00B5F2"/>
<path d="M16.2732 15.7434C16.1101 15.6256 15.8899 15.6256 15.7268 15.7434L12.8259 17.8384C12.4582 18.1041 11.966 17.7418 12.1103 17.3116L13.2543 13.9028C13.3192 13.7092 13.2508 13.4958 13.0852 13.3761L10.1686 11.2675C9.8018 11.0024 9.98939 10.4227 10.442 10.4227H14.0029C14.2051 10.4227 14.3844 10.2924 14.4468 10.1L15.5561 6.67956C15.6956 6.2493 16.3044 6.2493 16.4439 6.67956L17.5532 10.1C17.6156 10.2924 17.7949 10.4227 17.9971 10.4227H21.558C22.0106 10.4227 22.1982 11.0024 21.8314 11.2675L18.9148 13.3761C18.7492 13.4958 18.6808 13.7092 18.7457 13.9028L19.8897 17.3116C20.034 17.7418 19.5418 18.1041 19.1741 17.8384L16.2732 15.7434Z" fill="white"/>
</svg>
