<svg width="48" height="48" viewBox="0 0 48 48" fill="none" xmlns="http://www.w3.org/2000/svg">
<g id="featured_seasonal_and_gifts">
<mask id="mask0_3419_101382" style="mask-type:alpha" maskUnits="userSpaceOnUse" x="0" y="0" width="48" height="48">
<rect id="Bounding box" width="48" height="48" fill="#D9D9D9"/>
</mask>
<g mask="url(#mask0_3419_101382)">
<path id="featured_seasonal_and_gifts_2" d="M8 44V21.75H4V10.25H15C14.7333 9.85 14.5333 9.425 14.4 8.975C14.2667 8.525 14.2 8.06667 14.2 7.6C14.2 6.04433 14.7445 4.72217 15.8335 3.6335C16.9222 2.5445 18.2443 2 19.8 2C20.6 2 21.375 2.16667 22.125 2.5C22.875 2.83333 23.5 3.31667 24 3.95C24.5 3.31667 25.125 2.83333 25.875 2.5C26.625 2.16667 27.4 2 28.2 2C29.7557 2 31.0778 2.5445 32.1665 3.6335C33.2555 4.72217 33.8 6.04433 33.8 7.6C33.8 8.06667 33.7333 8.525 33.6 8.975C33.4667 9.425 33.2667 9.85 33 10.25H44V21.75H40V44H8ZM28.2035 5C27.4678 5 26.85 5.24883 26.35 5.7465C25.85 6.24417 25.6 6.86083 25.6 7.5965C25.6 8.33217 25.8488 8.95 26.3465 9.45C26.8442 9.95 27.4608 10.2 28.1965 10.2C28.9322 10.2 29.55 9.95117 30.05 9.4535C30.55 8.95583 30.8 8.33917 30.8 7.6035C30.8 6.86783 30.5512 6.25 30.0535 5.75C29.5558 5.25 28.9392 5 28.2035 5ZM17.2 7.5965C17.2 8.33217 17.4488 8.95 17.9465 9.45C18.4442 9.95 19.0608 10.2 19.7965 10.2C20.5322 10.2 21.15 9.95117 21.65 9.4535C22.15 8.95583 22.4 8.33917 22.4 7.6035C22.4 6.86783 22.1512 6.25 21.6535 5.75C21.1558 5.25 20.5392 5 19.8035 5C19.0678 5 18.45 5.24883 17.95 5.7465C17.45 6.24417 17.2 6.86083 17.2 7.5965ZM7 13.25V18.75H22.5V13.25H7ZM22.5 41V21.75H10.7V41H22.5ZM25.5 41H37.3V21.75H25.5V41ZM41 18.75V13.25H25.5V18.75H41Z" fill="#00B5F2"/>
</g>
</g>
</svg>
