<svg width="49" height="48" viewBox="0 0 49 48" fill="none" xmlns="http://www.w3.org/2000/svg">
<g id="label_off">
<mask id="mask0_1_50622" style="mask-type:alpha" maskUnits="userSpaceOnUse" x="0" y="0" width="49" height="48">
<rect id="Bounding box" x="0.666992" width="48" height="48" fill="#D9D9D9"/>
</mask>
<g mask="url(#mask0_1_50622)">
<path id="label_off_2" d="M36.4168 32.8008L34.2668 30.6508L38.9168 24.0008L31.2168 13.0008H16.6168L13.6168 10.0008H30.6668C31.5335 10.0008 32.2251 10.1758 32.7418 10.5258C33.2585 10.8758 33.7501 11.3841 34.2168 12.0508L42.6668 24.0008L36.4168 32.8008ZM40.2668 45.2008L32.5668 37.5008C32.4001 37.6674 32.1168 37.7924 31.7168 37.8758C31.3168 37.9591 30.9255 38.0008 30.5428 38.0008H9.6668C8.90013 38.0008 8.20846 37.6924 7.5918 37.0758C6.97513 36.4591 6.6668 35.7674 6.6668 35.0008V14.0008C6.6668 13.5341 6.7168 13.1674 6.8168 12.9008C6.9168 12.6341 7.03346 12.3674 7.1668 12.1008L3.4668 8.40078L5.5668 6.30078L42.3668 43.0508L40.2668 45.2008ZM30.0668 35.0008L9.6668 14.6008V35.0008H30.0668Z" fill="#00B5F2"/>
</g>
</g>
</svg>
