<svg width="32" height="32" viewBox="0 0 32 32" fill="none" xmlns="http://www.w3.org/2000/svg">
<g id="mood">
<mask id="mask0_1710_51723" style="mask-type:alpha" maskUnits="userSpaceOnUse" x="0" y="0" width="32" height="32">
<rect id="Bounding box" width="32" height="32" fill="#D9D9D9"/>
</mask>
<g mask="url(#mask0_1710_51723)">
<path id="mood_2" d="M20.7998 14.379C21.3183 14.379 21.7591 14.1975 22.1222 13.8346C22.4851 13.4717 22.6665 13.031 22.6665 12.5123C22.6665 11.9939 22.4851 11.5532 22.1222 11.1903C21.7591 10.8272 21.3183 10.6456 20.7998 10.6456C20.2814 10.6456 19.8406 10.8272 19.4775 11.1903C19.1146 11.5532 18.9332 11.9939 18.9332 12.5123C18.9332 13.031 19.1146 13.4717 19.4775 13.8346C19.8406 14.1975 20.2814 14.379 20.7998 14.379ZM11.1998 14.379C11.7183 14.379 12.1591 14.1975 12.5222 13.8346C12.8851 13.4717 13.0665 13.031 13.0665 12.5123C13.0665 11.9939 12.8851 11.5532 12.5222 11.1903C12.1591 10.8272 11.7183 10.6456 11.1998 10.6456C10.6814 10.6456 10.2406 10.8272 9.8775 11.1903C9.51462 11.5532 9.33317 11.9939 9.33317 12.5123C9.33317 13.031 9.51462 13.4717 9.8775 13.8346C10.2406 14.1975 10.6814 14.379 11.1998 14.379ZM15.9998 23.3123C17.4814 23.3123 18.8388 22.9067 20.0722 22.0956C21.3055 21.2845 22.1999 20.1939 22.7555 18.8236H9.24417C9.81462 20.1939 10.7128 21.2845 11.9388 22.0956C13.1646 22.9067 14.5183 23.3123 15.9998 23.3123ZM15.9998 29.3346C14.1554 29.3346 12.4221 28.9846 10.7998 28.2846C9.17762 27.5846 7.7665 26.6346 6.5665 25.4346C5.3665 24.2346 4.4165 22.8235 3.7165 21.2013C3.0165 19.5791 2.6665 17.8457 2.6665 16.0013C2.6665 14.1569 3.0165 12.4235 3.7165 10.8013C4.4165 9.17908 5.3665 7.76797 6.5665 6.56797C7.7665 5.36797 9.17762 4.41797 10.7998 3.71797C12.4221 3.01797 14.1554 2.66797 15.9998 2.66797C17.8443 2.66797 19.5776 3.01797 21.1998 3.71797C22.8221 4.41797 24.2332 5.36797 25.4332 6.56797C26.6332 7.76797 27.5832 9.17908 28.2832 10.8013C28.9832 12.4235 29.3332 14.1569 29.3332 16.0013C29.3332 17.8457 28.9832 19.5791 28.2832 21.2013C27.5832 22.8235 26.6332 24.2346 25.4332 25.4346C24.2332 26.6346 22.8221 27.5846 21.1998 28.2846C19.5776 28.9846 17.8443 29.3346 15.9998 29.3346ZM15.9998 27.1123C19.1016 27.1123 21.729 26.036 23.8818 23.8833C26.0345 21.7304 27.1108 19.1031 27.1108 16.0013C27.1108 12.8995 26.0345 10.2722 23.8818 8.1193C21.729 5.96663 19.1016 4.8903 15.9998 4.8903C12.8981 4.8903 10.2707 5.96663 8.11784 8.1193C5.96517 10.2722 4.88884 12.8995 4.88884 16.0013C4.88884 19.1031 5.96517 21.7304 8.11784 23.8833C10.2707 26.036 12.8981 27.1123 15.9998 27.1123Z" fill="#00B5F2"/>
</g>
</g>
</svg>
