<svg width="48" height="48" viewBox="0 0 48 48" fill="none" xmlns="http://www.w3.org/2000/svg">
<g id="mood_bad">
<mask id="mask0_3457_205555" style="mask-type:alpha" maskUnits="userSpaceOnUse" x="0" y="0" width="48" height="48">
<rect id="Bounding box" width="48" height="48" fill="#D9D9D9"/>
</mask>
<g mask="url(#mask0_3457_205555)">
<path id="mood_bad_2" d="M31.3 21.35C32.05 21.35 32.6875 21.0875 33.2125 20.5625C33.7375 20.0375 34 19.4 34 18.65C34 17.9 33.7375 17.2625 33.2125 16.7375C32.6875 16.2125 32.05 15.95 31.3 15.95C30.55 15.95 29.9125 16.2125 29.3875 16.7375C28.8625 17.2625 28.6 17.9 28.6 18.65C28.6 19.4 28.8625 20.0375 29.3875 20.5625C29.9125 21.0875 30.55 21.35 31.3 21.35ZM16.7 21.35C17.45 21.35 18.0875 21.0875 18.6125 20.5625C19.1375 20.0375 19.4 19.4 19.4 18.65C19.4 17.9 19.1375 17.2625 18.6125 16.7375C18.0875 16.2125 17.45 15.95 16.7 15.95C15.95 15.95 15.3125 16.2125 14.7875 16.7375C14.2625 17.2625 14 17.9 14 18.65C14 19.4 14.2625 20.0375 14.7875 20.5625C15.3125 21.0875 15.95 21.35 16.7 21.35ZM24.0085 27.15C21.7695 27.15 19.7417 27.775 17.925 29.025C16.1083 30.275 14.7667 31.9333 13.9 34H34.1C33.2667 31.9 31.9362 30.2333 30.1085 29C28.2812 27.7667 26.2478 27.15 24.0085 27.15ZM24 44C21.2333 44 18.6333 43.475 16.2 42.425C13.7667 41.375 11.65 39.95 9.85 38.15C8.05 36.35 6.625 34.2333 5.575 31.8C4.525 29.3667 4 26.7667 4 24C4 21.2333 4.525 18.6333 5.575 16.2C6.625 13.7667 8.05 11.65 9.85 9.85C11.65 8.05 13.7667 6.625 16.2 5.575C18.6333 4.525 21.2333 4 24 4C26.7667 4 29.3667 4.525 31.8 5.575C34.2333 6.625 36.35 8.05 38.15 9.85C39.95 11.65 41.375 13.7667 42.425 16.2C43.475 18.6333 44 21.2333 44 24C44 26.7667 43.475 29.3667 42.425 31.8C41.375 34.2333 39.95 36.35 38.15 38.15C36.35 39.95 34.2333 41.375 31.8 42.425C29.3667 43.475 26.7667 44 24 44ZM24 41C28.746 41 32.7658 39.3532 36.0595 36.0595C39.3532 32.7655 41 28.7457 41 24C41 19.254 39.3532 15.2342 36.0595 11.9405C32.7658 8.64683 28.746 7 24 7C19.2543 7 15.2345 8.64683 11.9405 11.9405C8.64683 15.2342 7 19.254 7 24C7 28.7457 8.64683 32.7655 11.9405 36.0595C15.2345 39.3532 19.2543 41 24 41Z" fill="#00B5F2"/>
</g>
</g>
</svg>
