<svg width="49" height="48" viewBox="0 0 49 48" fill="none" xmlns="http://www.w3.org/2000/svg">
<g id="play_circle">
<mask id="mask0_1_50608" style="mask-type:alpha" maskUnits="userSpaceOnUse" x="0" y="0" width="49" height="48">
<rect id="Bounding box" x="0.333252" width="48" height="48" fill="#D9D9D9"/>
</mask>
<g mask="url(#mask0_1_50608)">
<path id="play_circle_2" d="M19.4833 32.5L32.8333 24L19.4833 15.5V32.5ZM24.3333 44C21.5999 44 19.0166 43.475 16.5833 42.425C14.1499 41.375 12.0249 39.9417 10.2083 38.125C8.39159 36.3083 6.95825 34.1833 5.90825 31.75C4.85825 29.3167 4.33325 26.7333 4.33325 24C4.33325 21.2333 4.85825 18.6333 5.90825 16.2C6.95825 13.7667 8.39159 11.65 10.2083 9.85C12.0249 8.05 14.1499 6.625 16.5833 5.575C19.0166 4.525 21.5999 4 24.3333 4C27.0999 4 29.6999 4.525 32.1333 5.575C34.5666 6.625 36.6833 8.05 38.4833 9.85C40.2833 11.65 41.7083 13.7667 42.7583 16.2C43.8083 18.6333 44.3333 21.2333 44.3333 24C44.3333 26.7333 43.8083 29.3167 42.7583 31.75C41.7083 34.1833 40.2833 36.3083 38.4833 38.125C36.6833 39.9417 34.5666 41.375 32.1333 42.425C29.6999 43.475 27.0999 44 24.3333 44ZM24.3333 41C29.0666 41 33.0833 39.3417 36.3833 36.025C39.6833 32.7083 41.3333 28.7 41.3333 24C41.3333 19.2667 39.6833 15.25 36.3833 11.95C33.0833 8.65 29.0666 7 24.3333 7C19.6333 7 15.6249 8.65 12.3083 11.95C8.99158 15.25 7.33325 19.2667 7.33325 24C7.33325 28.7 8.99158 32.7083 12.3083 36.025C15.6249 39.3417 19.6333 41 24.3333 41Z" fill="#00B5F2"/>
</g>
</g>
</svg>
