<svg width="22" height="22" viewBox="0 0 22 22" fill="none" xmlns="http://www.w3.org/2000/svg">
<path id="&#244;&#128;&#150;&#130;" d="M2.58008 10.0312C1.73633 10.0312 1.10352 9.82031 0.681641 9.39844C0.267578 8.97656 0.0605469 8.32812 0.0605469 7.45312V2.56641C0.0605469 1.69141 0.267578 1.04688 0.681641 0.632812C1.10352 0.210938 1.73633 0 2.58008 0H7.56055C8.4043 0 9.03711 0.210938 9.45898 0.632812C9.88086 1.04688 10.0918 1.69141 10.0918 2.56641V7.45312C10.0918 8.32812 9.88086 8.97656 9.45898 9.39844C9.03711 9.82031 8.4043 10.0312 7.56055 10.0312H2.58008ZM2.54492 8.16797H7.5957C7.80664 8.16797 7.9668 8.11328 8.07617 8.00391C8.18555 7.89453 8.24023 7.73047 8.24023 7.51172V2.49609C8.24023 2.27734 8.18555 2.11719 8.07617 2.01562C7.9668 1.90625 7.80664 1.85156 7.5957 1.85156H2.54492C2.33398 1.85156 2.17383 1.90625 2.06445 2.01562C1.96289 2.11719 1.91211 2.27734 1.91211 2.49609V7.51172C1.91211 7.73047 1.96289 7.89453 2.06445 8.00391C2.17383 8.11328 2.33398 8.16797 2.54492 8.16797ZM4.02148 6.30469C3.85742 6.30469 3.77539 6.20703 3.77539 6.01172V3.98438C3.77539 3.80469 3.85742 3.71484 4.02148 3.71484H6.10742C6.2793 3.71484 6.36523 3.80469 6.36523 3.98438V6.01172C6.36523 6.20703 6.2793 6.30469 6.10742 6.30469H4.02148ZM14.4395 10.0312C13.5957 10.0312 12.9629 9.82031 12.541 9.39844C12.1191 8.97656 11.9082 8.32812 11.9082 7.45312V2.56641C11.9082 1.69141 12.1191 1.04688 12.541 0.632812C12.9629 0.210938 13.5957 0 14.4395 0H19.4199C20.2637 0 20.8926 0.210938 21.3066 0.632812C21.7285 1.04688 21.9395 1.69141 21.9395 2.56641V7.45312C21.9395 8.32812 21.7285 8.97656 21.3066 9.39844C20.8926 9.82031 20.2637 10.0312 19.4199 10.0312H14.4395ZM14.4043 8.16797H19.4551C19.6738 8.16797 19.834 8.11328 19.9355 8.00391C20.0371 7.89453 20.0879 7.73047 20.0879 7.51172V2.49609C20.0879 2.27734 20.0371 2.11719 19.9355 2.01562C19.834 1.90625 19.6738 1.85156 19.4551 1.85156H14.4043C14.1855 1.85156 14.0215 1.90625 13.9121 2.01562C13.8105 2.11719 13.7598 2.27734 13.7598 2.49609V7.51172C13.7598 7.73047 13.8105 7.89453 13.9121 8.00391C14.0215 8.11328 14.1855 8.16797 14.4043 8.16797ZM15.9277 6.30469C15.7793 6.30469 15.7051 6.20703 15.7051 6.01172V3.98438C15.7051 3.80469 15.7793 3.71484 15.9277 3.71484H18.0254C18.1973 3.71484 18.2832 3.80469 18.2832 3.98438V6.01172C18.2832 6.20703 18.1973 6.30469 18.0254 6.30469H15.9277ZM2.58008 21.8789C1.73633 21.8789 1.10352 21.668 0.681641 21.2461C0.267578 20.832 0.0605469 20.1875 0.0605469 19.3125V14.4141C0.0605469 13.5469 0.267578 12.9023 0.681641 12.4805C1.10352 12.0586 1.73633 11.8477 2.58008 11.8477H7.56055C8.4043 11.8477 9.03711 12.0586 9.45898 12.4805C9.88086 12.9023 10.0918 13.5469 10.0918 14.4141V19.3125C10.0918 20.1875 9.88086 20.832 9.45898 21.2461C9.03711 21.668 8.4043 21.8789 7.56055 21.8789H2.58008ZM2.54492 20.0273H7.5957C7.80664 20.0273 7.9668 19.9727 8.07617 19.8633C8.18555 19.7539 8.24023 19.5938 8.24023 19.3828V14.3555C8.24023 14.1367 8.18555 13.9727 8.07617 13.8633C7.9668 13.7539 7.80664 13.6992 7.5957 13.6992H2.54492C2.33398 13.6992 2.17383 13.7539 2.06445 13.8633C1.96289 13.9727 1.91211 14.1367 1.91211 14.3555V19.3828C1.91211 19.5938 1.96289 19.7539 2.06445 19.8633C2.17383 19.9727 2.33398 20.0273 2.54492 20.0273ZM4.02148 18.1641C3.85742 18.1641 3.77539 18.0664 3.77539 17.8711V15.8438C3.77539 15.6641 3.85742 15.5742 4.02148 15.5742H6.10742C6.2793 15.5742 6.36523 15.6641 6.36523 15.8438V17.8711C6.36523 18.0664 6.2793 18.1641 6.10742 18.1641H4.02148ZM12.7402 14.9766C12.5762 14.9766 12.4941 14.8828 12.4941 14.6953V12.668C12.4941 12.4883 12.5762 12.3984 12.7402 12.3984H14.8262C14.9902 12.3984 15.0723 12.4883 15.0723 12.668V14.6953C15.0723 14.8828 14.9902 14.9766 14.8262 14.9766H12.7402ZM19.0098 14.9766C18.8457 14.9766 18.7637 14.8828 18.7637 14.6953V12.668C18.7637 12.4883 18.8457 12.3984 19.0098 12.3984H21.0957C21.2598 12.3984 21.3418 12.4883 21.3418 12.668V14.6953C21.3418 14.8828 21.2598 14.9766 21.0957 14.9766H19.0098ZM15.9043 18.1289C15.7402 18.1289 15.6582 18.0312 15.6582 17.8359V15.8086C15.6582 15.6289 15.7402 15.5391 15.9043 15.5391H17.9902C18.1543 15.5391 18.2363 15.6289 18.2363 15.8086V17.8359C18.2363 18.0312 18.1543 18.1289 17.9902 18.1289H15.9043ZM12.7402 21.2578C12.5762 21.2578 12.4941 21.1641 12.4941 20.9766V18.9375C12.4941 18.7578 12.5762 18.668 12.7402 18.668H14.8262C14.9902 18.668 15.0723 18.7578 15.0723 18.9375V20.9766C15.0723 21.1641 14.9902 21.2578 14.8262 21.2578H12.7402ZM19.0098 21.2578C18.8457 21.2578 18.7637 21.1641 18.7637 20.9766V18.9375C18.7637 18.7578 18.8457 18.668 19.0098 18.668H21.0957C21.2598 18.668 21.3418 18.7578 21.3418 18.9375V20.9766C21.3418 21.1641 21.2598 21.2578 21.0957 21.2578H19.0098Z" fill="#00B5F2"/>
</svg>
