<svg width="32" height="32" viewBox="0 0 32 32" fill="none" xmlns="http://www.w3.org/2000/svg">
<g id="share">
<mask id="mask0_2306_23160" style="mask-type:alpha" maskUnits="userSpaceOnUse" x="0" y="0" width="32" height="32">
<rect id="Bounding box" width="32" height="32" fill="#D9D9D9"/>
</mask>
<g mask="url(#mask0_2306_23160)">
<path id="share_2" d="M22.8003 29.3307C21.7263 29.3307 20.8133 28.9548 20.0613 28.2031C19.3095 27.4511 18.9337 26.5381 18.9337 25.4641C18.9337 25.3012 18.9818 24.9456 19.078 24.3974L9.31133 18.6864C8.95177 19.0544 8.53599 19.3426 8.06399 19.5511C7.59199 19.7597 7.08188 19.8641 6.53366 19.8641C5.45966 19.8641 4.54666 19.4882 3.79466 18.7364C3.04288 17.9844 2.66699 17.0714 2.66699 15.9974C2.66699 14.9234 3.04288 14.0104 3.79466 13.2584C4.54666 12.5066 5.45966 12.1307 6.53366 12.1307C7.06699 12.1307 7.56699 12.2311 8.03366 12.4317C8.50033 12.6324 8.91144 12.9098 9.26699 13.2641L19.078 7.5974C19.0336 7.42695 18.9984 7.25473 18.9727 7.08073C18.9467 6.90673 18.9337 6.7234 18.9337 6.53073C18.9337 5.45673 19.3095 4.54373 20.0613 3.79173C20.8133 3.03995 21.7263 2.66406 22.8003 2.66406C23.8743 2.66406 24.7873 3.03995 25.5393 3.79173C26.2911 4.54373 26.667 5.45673 26.667 6.53073C26.667 7.60473 26.2911 8.51773 25.5393 9.26973C24.7873 10.0215 23.8743 10.3974 22.8003 10.3974C22.2777 10.3974 21.7878 10.2993 21.3307 10.1031C20.8733 9.90662 20.4669 9.64173 20.1113 9.3084L10.2337 14.8864C10.293 15.0566 10.3355 15.2362 10.3613 15.4251C10.3873 15.614 10.4003 15.8011 10.4003 15.9864C10.4003 16.1715 10.3911 16.3437 10.3727 16.5031C10.354 16.6622 10.3224 16.827 10.278 16.9974L20.1337 22.6641C20.4892 22.3307 20.8937 22.0696 21.347 21.8807C21.8001 21.6918 22.2857 21.5974 22.8037 21.5974C23.883 21.5974 24.7967 21.9733 25.5447 22.7251C26.2929 23.4771 26.667 24.3901 26.667 25.4641C26.667 26.5381 26.2911 27.4511 25.5393 28.2031C24.7873 28.9548 23.8743 29.3307 22.8003 29.3307ZM22.801 27.1084C23.2672 27.1084 23.6578 26.9507 23.9727 26.6354C24.2873 26.3201 24.4447 25.9294 24.4447 25.4634C24.4447 24.9972 24.287 24.6066 23.9717 24.2917C23.6563 23.9771 23.2657 23.8197 22.7997 23.8197C22.3334 23.8197 21.9429 23.9774 21.628 24.2927C21.3133 24.6081 21.156 24.9987 21.156 25.4647C21.156 25.931 21.3137 26.3215 21.629 26.6364C21.9443 26.9511 22.335 27.1084 22.801 27.1084ZM6.53433 17.6417C7.00055 17.6417 7.3911 17.4841 7.70599 17.1687C8.02066 16.8534 8.17799 16.4627 8.17799 15.9967C8.17799 15.5305 8.02033 15.14 7.70499 14.8251C7.38966 14.5104 6.99899 14.3531 6.53299 14.3531C6.06677 14.3531 5.67621 14.5107 5.36133 14.8261C5.04666 15.1414 4.88933 15.5321 4.88933 15.9981C4.88933 16.4643 5.04699 16.8548 5.36233 17.1697C5.67766 17.4844 6.06833 17.6417 6.53433 17.6417ZM22.801 8.17506C23.2672 8.17506 23.6578 8.0174 23.9727 7.70206C24.2873 7.38673 24.4447 6.99606 24.4447 6.53006C24.4447 6.06384 24.287 5.67329 23.9717 5.3584C23.6563 5.04373 23.2657 4.8864 22.7997 4.8864C22.3334 4.8864 21.9429 5.04406 21.628 5.3594C21.3133 5.67473 21.156 6.0654 21.156 6.5314C21.156 6.99762 21.3137 7.38817 21.629 7.70306C21.9443 8.01773 22.335 8.17506 22.801 8.17506Z" fill="#00B5F2"/>
</g>
</g>
</svg>
