<svg width="32" height="32" viewBox="0 0 32 32" fill="none" xmlns="http://www.w3.org/2000/svg">
<g id="travel_explore">
<mask id="mask0_1710_51708" style="mask-type:alpha" maskUnits="userSpaceOnUse" x="0" y="0" width="32" height="32">
<rect id="Bounding box" width="32" height="32" fill="#D9D9D9"/>
</mask>
<g mask="url(#mask0_1710_51708)">
<path id="travel_explore_2" d="M15.5108 29.3123C13.7257 29.2532 12.0517 28.8625 10.4888 28.1403C8.92573 27.4181 7.56639 26.4606 6.41084 25.268C5.25528 24.0753 4.34239 22.6844 3.67217 21.0953C3.00173 19.5062 2.6665 17.8082 2.6665 16.0013C2.6665 14.1569 3.0165 12.4235 3.7165 10.8013C4.4165 9.17908 5.3665 7.76797 6.5665 6.56797C7.7665 5.36797 9.17762 4.41797 10.7998 3.71797C12.4221 3.01797 14.1554 2.66797 15.9998 2.66797C19.2887 2.66797 22.1535 3.70319 24.5942 5.77364C27.0351 7.84386 28.5406 10.442 29.1108 13.568H26.8442C26.4517 11.7829 25.6722 10.1884 24.5055 8.78464C23.3388 7.38086 21.8888 6.32719 20.1555 5.62364V6.2013C20.1555 6.96419 19.8906 7.6253 19.3608 8.18464C18.8313 8.74397 18.1851 9.02363 17.4222 9.02363H14.5998V11.8456C14.5998 12.2172 14.4573 12.5286 14.1722 12.78C13.8868 13.0313 13.5553 13.157 13.1775 13.157H10.4442V16.0013H13.7775V20.1123H11.8442L5.1775 13.4456C5.08128 13.8754 5.00906 14.3026 4.96084 14.7273C4.91284 15.152 4.88884 15.5766 4.88884 16.0013C4.88884 18.9717 5.90362 21.531 7.93317 23.679C9.96273 25.8272 12.4886 26.9643 15.5108 27.0903V29.3123ZM28.2665 28.5123L23.8665 24.1123C23.3998 24.4234 22.8962 24.6679 22.3555 24.8456C21.8146 25.0234 21.2548 25.1123 20.6762 25.1123C19.0686 25.1123 17.7022 24.5503 16.5768 23.4263C15.4515 22.3025 14.8888 20.9377 14.8888 19.332C14.8888 17.7264 15.4508 16.3625 16.5748 15.2403C17.6986 14.1181 19.0634 13.557 20.6692 13.557C22.2747 13.557 23.6386 14.1196 24.7608 15.245C25.8831 16.3703 26.4442 17.7367 26.4442 19.3443C26.4442 19.923 26.3516 20.4827 26.1665 21.0236C25.9814 21.5643 25.7406 22.0754 25.4442 22.557L29.8442 26.9346L28.2665 28.5123ZM20.6635 22.8903C21.6582 22.8903 22.4999 22.5469 23.1888 21.86C23.8777 21.1731 24.2222 20.3323 24.2222 19.3376C24.2222 18.343 23.8787 17.5012 23.1918 16.8123C22.5049 16.1234 21.6642 15.779 20.6695 15.779C19.6748 15.779 18.8331 16.1224 18.1442 16.8093C17.4553 17.4962 17.1108 18.337 17.1108 19.3316C17.1108 20.3263 17.4543 21.1681 18.1412 21.857C18.8281 22.5459 19.6688 22.8903 20.6635 22.8903Z" fill="#00B5F2"/>
</g>
</g>
</svg>
