<svg width="24" height="24" viewBox="0 0 24 24" fill="none" xmlns="http://www.w3.org/2000/svg">
<g id="Frame">
<path id="Vector" d="M12.9184 1.925C13.3223 1.36761 13.8446 0.906069 14.4478 0.573319C15.051 0.240569 15.7204 0.0448073 16.4082 0C16.4681 0.624723 16.4014 1.2551 16.2121 1.85355C16.0228 2.452 15.7146 3.00628 15.3061 3.48333C14.933 4.00202 14.4337 4.41728 13.8553 4.68993C13.2768 4.96258 12.6383 5.08363 12 5.04167C11.9338 4.48717 11.981 3.92503 12.1389 3.38929C12.2967 2.85356 12.5619 2.3554 12.9184 1.925ZM8.32653 5.31667C5.7551 5.31667 3 7.60833 3 12.0083C3 16.5 6.21429 22 8.78571 22C9.70408 22 11.0816 21.0833 12.4592 21.0833C13.8367 21.0833 14.8469 21.9083 16.1327 21.9083C18.9796 21.9083 21 16.0417 21 16.0417C20.1224 15.6637 19.3758 15.0362 18.8532 14.2374C18.3306 13.4387 18.0551 12.504 18.0612 11.55C18.0618 10.7138 18.2827 9.89244 18.7018 9.1684C19.1209 8.44436 19.7235 7.8431 20.449 7.425C19.9782 6.72034 19.3341 6.14804 18.5784 5.76285C17.8227 5.37767 16.9806 5.19248 16.1327 5.225C14.2959 5.225 12.9184 6.23333 12.1837 6.23333C11.3571 6.23333 9.97959 5.31667 8.32653 5.31667Z" fill="black"/>
</g>
</svg>
