<svg width="24" height="24" viewBox="0 0 24 24" fill="none" xmlns="http://www.w3.org/2000/svg">
<g id="Frame">
<path id="Vector" d="M18.09 18.7499C20.205 16.7774 21.1425 13.4999 20.58 10.3574H12.1875V13.8299H16.965C16.8722 14.3746 16.6661 14.8938 16.3599 15.3537C16.0537 15.8137 15.6542 16.2042 15.1875 16.4999L18.09 18.7499Z" fill="#4285F4"/>
<path id="Vector_2" d="M4.21484 15.9825C4.83131 17.1974 5.71552 18.2564 6.80083 19.0798C7.88613 19.9033 9.14421 20.4696 10.4802 20.736C11.8162 21.0025 13.1953 20.9622 14.5134 20.6182C15.8316 20.2742 17.0545 19.6354 18.0898 18.75L15.1873 16.5C14.499 16.9463 13.7176 17.229 12.903 17.3263C12.0885 17.4236 11.2624 17.333 10.4883 17.0615C9.71422 16.7899 9.01261 16.3446 8.43737 15.7598C7.86212 15.1749 7.42852 14.466 7.16984 13.6875L4.21484 15.9825Z" fill="#34A853"/>
<path id="Vector_3" d="M7.16932 13.6873C6.79432 12.5173 6.79432 11.4373 7.16932 10.2673L4.21432 7.96484C3.59796 9.21263 3.27734 10.5856 3.27734 11.9773C3.27734 13.3691 3.59796 14.7421 4.21432 15.9898L7.16932 13.6873Z" fill="#FBBC02"/>
<path id="Vector_4" d="M7.16984 10.2679C8.20484 7.02793 12.6073 5.15293 15.5623 7.92043L18.1423 5.39293C17.132 4.46122 15.9186 3.77762 14.5982 3.39629C13.2778 3.01497 11.8867 2.94641 10.5352 3.19604C9.18374 3.44567 7.90896 4.00663 6.81191 4.83447C5.71485 5.66231 4.82568 6.73428 4.21484 7.96543L7.16984 10.2679Z" fill="#EA4335"/>
</g>
</svg>
