<svg width="20" height="20" viewBox="0 0 20 20" fill="none" xmlns="http://www.w3.org/2000/svg">
<g id="android">
<path id="background" d="M14.8792 7.83385L16.5382 5.0383C16.6318 4.88158 16.5752 4.6825 16.4163 4.59143C16.2573 4.50036 16.0505 4.55331 15.9591 4.71003L14.2782 7.54159C12.9958 6.97189 11.5524 6.65421 9.99999 6.65421C8.44763 6.65421 7.00413 6.97188 5.72174 7.54159L4.04093 4.71003C3.9473 4.55331 3.74265 4.50036 3.58153 4.59143C3.42042 4.6825 3.36599 4.88158 3.45961 5.0383L5.11865 7.83385C2.25778 9.34177 0.320045 12.1585 0 15.456H20C19.6799 12.1585 17.7422 9.34174 14.8792 7.83385ZM5.40822 12.724C4.94447 12.724 4.56999 12.3576 4.56999 11.9086C4.56999 11.4575 4.94665 11.0932 5.40822 11.0932C5.87197 11.0932 6.24645 11.4596 6.24645 11.9086C6.24864 12.3576 5.87197 12.724 5.40822 12.724ZM14.5896 12.724C14.1259 12.724 13.7514 12.3576 13.7514 11.9086C13.7514 11.4575 14.128 11.0932 14.5896 11.0932C15.0533 11.0932 15.4278 11.4596 15.4278 11.9086C15.43 12.3576 15.0533 12.724 14.5896 12.724Z" fill="#00141A"/>
</g>
</svg>
