<svg width="21" height="20" viewBox="0 0 21 20" fill="none" xmlns="http://www.w3.org/2000/svg">
<g id="apple">
<path id="background" d="M14.1009 4.34765C14.228 4.34765 14.4248 4.36281 14.6913 4.39313C14.9638 4.41738 15.2727 4.48408 15.6179 4.59323C15.963 4.70237 16.3143 4.87822 16.6716 5.12077C17.0289 5.36332 17.3589 5.70288 17.6617 6.13946C17.6314 6.15766 17.5164 6.23951 17.3165 6.38504C17.1227 6.53057 16.9017 6.7428 16.6534 7.02173C16.4051 7.29459 16.1871 7.64325 15.9994 8.06771C15.8177 8.4861 15.7269 8.98636 15.7269 9.56847C15.7269 10.2355 15.8419 10.7994 16.0721 11.2602C16.3082 11.7211 16.5807 12.094 16.8896 12.379C17.2045 12.664 17.4831 12.8732 17.7253 13.0066C17.9736 13.1339 18.1068 13.2006 18.125 13.2067C18.1189 13.2309 18.0735 13.3674 17.9887 13.616C17.904 13.8585 17.7707 14.1738 17.5891 14.5619C17.4134 14.9439 17.1833 15.3441 16.8987 15.7625C16.6383 16.1324 16.3688 16.4871 16.0902 16.8267C15.8177 17.1662 15.5179 17.4421 15.1909 17.6544C14.87 17.8727 14.5066 17.9818 14.1009 17.9818C13.792 17.9818 13.5286 17.9454 13.3106 17.8727C13.0925 17.7999 12.8836 17.715 12.6838 17.618C12.49 17.527 12.275 17.4452 12.0388 17.3724C11.8026 17.2996 11.5089 17.2633 11.1577 17.2633C10.6974 17.2633 10.3129 17.3239 10.004 17.4452C9.70124 17.5725 9.41359 17.6968 9.14107 17.8181C8.86856 17.9394 8.54759 18 8.17818 18C7.61498 18 7.1184 17.7756 6.68843 17.3269C6.26452 16.8782 5.82849 16.3416 5.38036 15.717C5.03517 15.2198 4.72026 14.6468 4.43564 13.998C4.15101 13.3492 3.92391 12.6609 3.75435 11.9333C3.58478 11.2057 3.5 10.478 3.5 9.75038C3.5 8.58615 3.72104 7.60687 4.16312 6.81253C4.6052 6.01819 5.17143 5.41789 5.8618 5.01162C6.55217 4.60536 7.2698 4.40222 8.01467 4.40222C8.40831 4.40222 8.77772 4.46589 9.1229 4.59323C9.47415 4.72057 9.80116 4.85093 10.104 4.98434C10.4068 5.11167 10.6823 5.17534 10.9306 5.17534C11.1668 5.17534 11.4453 5.10864 11.7663 4.97524C12.0873 4.83578 12.4415 4.69631 12.8291 4.55685C13.2227 4.41738 13.6467 4.34765 14.1009 4.34765ZM13.465 2.87418C13.1622 3.24406 12.7807 3.55028 12.3204 3.79282C11.8662 4.03537 11.4363 4.15664 11.0305 4.15664C10.9457 4.15664 10.864 4.14755 10.7852 4.12936C10.7792 4.1051 10.7701 4.06266 10.758 4.00202C10.7519 3.94138 10.7489 3.87468 10.7489 3.80192C10.7489 3.34108 10.8488 2.89237 11.0487 2.45579C11.2485 2.0192 11.4786 1.65538 11.7391 1.36433C12.06 0.982314 12.4658 0.663972 12.9563 0.409298C13.4529 0.154624 13.9283 0.018191 14.3825 0C14.4006 0.103082 14.4097 0.221324 14.4097 0.354725C14.4097 0.821627 14.3219 1.2764 14.1463 1.71905C13.9707 2.15563 13.7436 2.54068 13.465 2.87418Z" fill="#00141A"/>
</g>
</svg>
