<svg width="24" height="24" viewBox="0 0 24 24" fill="none" xmlns="http://www.w3.org/2000/svg">
<g id="no calls">
<path id="background" d="M19.8004 22.7004L14.2504 17.1504C12.7671 18.3504 11.1546 19.2921 9.41289 19.9754C7.67122 20.6587 5.88372 21.0004 4.05039 21.0004C3.65039 21.0004 3.37539 20.9004 3.22539 20.7004C3.07539 20.5004 3.00039 20.2504 3.00039 19.9504V15.9004C3.00039 15.6671 3.07539 15.4629 3.22539 15.2879C3.37539 15.1129 3.56706 15.0004 3.80039 14.9504L7.25039 14.2504C7.43372 14.2171 7.66289 14.2421 7.93789 14.3254C8.21289 14.4087 8.41706 14.5171 8.55039 14.6504L10.9004 17.0004C11.2004 16.8171 11.5254 16.6087 11.8754 16.3754C12.2254 16.1421 12.5337 15.9171 12.8004 15.7004L1.40039 4.30039L2.80039 2.90039L21.2004 21.3004L19.8004 22.7004ZM9.00039 17.9004L7.35039 16.2504L5.00039 16.7504V18.9504C5.68372 18.9004 6.35872 18.7837 7.02539 18.6004C7.69206 18.4171 8.35039 18.1837 9.00039 17.9004ZM17.0504 14.3004L15.6504 12.9004C15.9004 12.6171 16.1546 12.2921 16.4129 11.9254C16.6712 11.5587 16.8754 11.2171 17.0254 10.9004L14.6004 8.45039C14.4671 8.31706 14.3754 8.12956 14.3254 7.88789C14.2754 7.64622 14.2671 7.45039 14.3004 7.30039L14.9504 3.80039C15.0004 3.56706 15.1129 3.37539 15.2879 3.22539C15.4629 3.07539 15.6671 3.00039 15.9004 3.00039H19.9504C20.2504 3.00039 20.5004 3.10039 20.7004 3.30039C20.9004 3.50039 21.0004 3.75039 21.0004 4.05039C21.0004 5.88372 20.6504 7.67122 19.9504 9.41289C19.2504 11.1546 18.2837 12.7837 17.0504 14.3004ZM17.9504 9.00039C18.2337 8.35039 18.4504 7.69206 18.6004 7.02539C18.7504 6.35872 18.8671 5.68372 18.9504 5.00039H16.7504L16.3004 7.35039L17.9504 9.00039Z" fill="#00141A"/>
</g>
</svg>
