<svg width="12" height="16" viewBox="0 0 12 16" fill="none" xmlns="http://www.w3.org/2000/svg">
<path d="M2.5 13H4V11.5H2.5V13ZM2.5 10H4V7H2.5V10ZM5.25 13H6.75V10H5.25V13ZM5.25 8.5H6.75V7H5.25V8.5ZM8 13H9.5V11.5H8V13ZM8 10H9.5V7H8V10ZM1.49417 16C1.08139 16 0.729167 15.8531 0.4375 15.5594C0.145833 15.2656 0 14.9125 0 14.5V4L4 0H10.5C10.9125 0 11.2656 0.146876 11.5594 0.440626C11.8531 0.734376 12 1.0875 12 1.5V14.5C12 14.9125 11.8531 15.2656 11.5592 15.5594C11.2653 15.8531 10.9119 16 10.4992 16H1.49417ZM1.5 14.5H10.5V1.5H4.625L1.5 4.625V14.5Z" fill="#00141A"/>
</svg>
