<svg width="41" height="56" viewBox="0 0 41 56" fill="none" xmlns="http://www.w3.org/2000/svg">
  <g id="Union">
    <path
      d="M16 1.69531C14.3431 1.69531 13 3.03846 13 4.69531V31.6953H11L9.44724 27.8134C9.15215 27.0757 8.71031 26.4056 8.14849 25.8438L5.24605 22.9414C4.55787 22.2532 3.44212 22.2532 2.75395 22.9414C2.29044 23.4049 2.12251 24.0874 2.31804 24.713L7 39.6953L15 47.6953V53.6953H34V46.6953L39 33.6953V22.6953C39 21.0385 37.6569 19.6953 36 19.6953C34.3431 19.6953 33 21.0385 33 22.6953V25.6953V20.1953C33 18.2623 31.433 16.6953 29.5 16.6953C27.567 16.6953 26 18.2623 26 20.1953V25.6953V17.1953C26 15.2623 24.433 13.6953 22.5 13.6953C20.567 13.6953 19 15.2623 19 17.1953V25.6953V4.69531C19 3.03846 17.6569 1.69531 16 1.69531Z"
      fill="white" />
    <path
      d="M16 1.69531C14.3431 1.69531 13 3.03846 13 4.69531V31.6953H11L9.44724 27.8134C9.15215 27.0757 8.71031 26.4056 8.14849 25.8438L5.24605 22.9414C4.55787 22.2532 3.44212 22.2532 2.75395 22.9414C2.29044 23.4049 2.12251 24.0874 2.31804 24.713L7 39.6953L15 47.6953V53.6953H34V46.6953L39 33.6953V22.6953C39 21.0385 37.6569 19.6953 36 19.6953C34.3431 19.6953 33 21.0385 33 22.6953V25.6953V20.1953C33 18.2623 31.433 16.6953 29.5 16.6953C27.567 16.6953 26 18.2623 26 20.1953V25.6953V17.1953C26 15.2623 24.433 13.6953 22.5 13.6953C20.567 13.6953 19 15.2623 19 17.1953V25.6953V4.69531C19 3.03846 17.6569 1.69531 16 1.69531Z"
      stroke="black" stroke-width="2.85714" />
  </g>
</svg>