<svg width="74" height="31" viewBox="0 0 74 31" fill="none" xmlns="http://www.w3.org/2000/svg">
<rect width="74" height="31" fill="#1E1E1E"/>
<g id="main page">
<path d="M-7964 -3315C-7964 -3316.1 -7963.1 -3317 -7962 -3317H367C368.104 -3317 369 -3316.1 369 -3315V5244C369 5245.1 368.104 5246 367 5246H-7962C-7963.1 5246 -7964 5245.1 -7964 5244V-3315Z" fill="#404040"/>
<path d="M-7962 -3316H367V-3318H-7962V-3316ZM368 -3315V5244H370V-3315H368ZM367 5245H-7962V5247H367V5245ZM-7963 5244V-3315H-7965V5244H-7963ZM-7962 5245C-7962.55 5245 -7963 5244.55 -7963 5244H-7965C-7965 5245.66 -7963.66 5247 -7962 5247V5245ZM368 5244C368 5244.55 367.552 5245 367 5245V5247C368.657 5247 370 5245.66 370 5244H368ZM367 -3316C367.552 -3316 368 -3315.55 368 -3315H370C370 -3316.66 368.656 -3318 367 -3318V-3316ZM-7962 -3318C-7963.66 -3318 -7965 -3316.66 -7965 -3315H-7963C-7963 -3315.55 -7962.55 -3316 -7962 -3316V-3318Z" fill="white" fill-opacity="0.1"/>
<g id="320" clip-path="url(#clip0_0_1)">
<rect width="320" height="7183.2" transform="translate(-51 -3217)" fill="#F5F9FA"/>
<g id="Frame 1618873107" filter="url(#filter0_d_0_1)">
<g id="Frame 1618873645">
<rect width="320" height="600" transform="translate(-51 -197.801)" fill="white"/>
<g id="Frame 1618873646">
<g id="Frame 1618873637">
<rect x="-26" y="-28.8008" width="126" height="88" rx="11" fill="white"/>
<rect x="-26" y="-28.8008" width="126" height="88" rx="11" stroke="#E9F0F2" stroke-width="2"/>
<g id="Frame 1618873636">
<g id="AT&#38;T_logo_2016 1" clip-path="url(#clip1_0_1)">
<g id="g3">
<path id="path5" d="M68.225 21.2735C68.0285 21.2735 67.8932 21.1365 67.8932 20.9394V11.1476H64.5878C64.3913 11.1476 64.2558 11.0111 64.2558 10.8138V9.46309C64.2558 9.2653 64.3914 9.12847 64.5878 9.12847H73.3862C73.5825 9.12847 73.7177 9.26545 73.7177 9.46309V10.8137C73.7177 11.0109 73.5825 11.1476 73.3862 11.1476H70.081V20.9392C70.081 21.1365 69.945 21.2735 69.7492 21.2735H68.225ZM42.9053 16.3849L41.1702 11.3756L39.4195 16.3849H42.9053ZM46.7536 20.8779C46.8294 21.0758 46.7084 21.2735 46.4971 21.2735H44.928C44.7015 21.2735 44.5655 21.1676 44.4898 20.9541L43.5998 18.3742H38.7259L37.8343 20.9541C37.7595 21.1677 37.6231 21.2735 37.3972 21.2735H35.9188C35.7223 21.2735 35.5863 21.0757 35.6618 20.8779L39.7514 9.43273C39.8271 9.2195 39.9628 9.12899 40.1887 9.12899H42.211C42.4375 9.12899 42.5885 9.21957 42.6639 9.43273L46.7536 20.8779ZM58.4759 19.6337C59.4413 19.6337 60.0905 19.1639 60.6188 18.3589L58.1745 15.7171C57.2384 16.2488 56.6345 16.7795 56.6345 17.8424C56.6346 18.8901 57.4793 19.6337 58.4759 19.6337ZM59.1549 10.7376C58.3704 10.7376 57.9177 11.239 57.9177 11.9069C57.9177 12.423 58.1888 12.8785 58.8077 13.5466C59.8791 12.9238 60.3321 12.5444 60.3321 11.8767C60.3321 11.2537 59.9399 10.7376 59.1549 10.7376ZM65.8407 20.8484C66.0367 21.0611 65.9162 21.2735 65.6741 21.2735H63.7575C63.5011 21.2735 63.3653 21.2125 63.1994 21.015L62.0525 19.7403C61.283 20.7727 60.2106 21.5467 58.4303 21.5467C56.2272 21.5467 54.4912 20.2109 54.4912 17.919C54.4912 16.1574 55.4273 15.216 56.8461 14.4268C56.1513 13.6223 55.835 12.7721 55.835 12.0286C55.835 10.1456 57.1478 8.85547 59.1244 8.85547C61.1466 8.85547 62.3843 10.0552 62.3843 11.831C62.3843 13.3491 61.298 14.1985 60.1507 14.8365L61.8412 16.674L62.7917 15.0035C62.9124 14.8065 63.0483 14.7303 63.2894 14.7303H64.7529C64.9947 14.7303 65.1306 14.8977 64.9801 15.1556L63.2896 18.0699L65.8407 20.8484ZM50.7803 21.2735C50.9765 21.2735 51.113 21.1365 51.113 20.9394V11.1476H54.4174C54.6136 11.1476 54.7492 11.0111 54.7492 10.8138V9.46309C54.7492 9.2653 54.6136 9.12847 54.4174 9.12847H45.6191C45.4226 9.12847 45.2871 9.26545 45.2871 9.46309V10.8137C45.2871 11.0109 45.4227 11.1476 45.6191 11.1476H48.9235V20.9392C48.9235 21.1365 49.0597 21.2735 49.2557 21.2735H50.7803Z" fill="black"/>
<path id="path9" d="M6.12001 27.179C8.67931 29.1727 11.8917 30.3706 15.3769 30.3706C19.1909 30.3706 22.668 28.9456 25.3216 26.6064C25.3538 26.5778 25.3379 26.5589 25.3062 26.5778C24.1154 27.3781 20.7216 29.1251 15.3771 29.1251C10.7325 29.1251 7.79725 28.0823 6.13968 27.1512C6.10797 27.1354 6.09622 27.1594 6.12001 27.179ZM16.4016 27.9552C20.1164 27.9552 24.1986 26.9362 26.6401 24.9189C27.3082 24.3693 27.9446 23.6378 28.5145 22.6547C28.8426 22.089 29.1635 21.4169 29.4249 20.7563C29.4365 20.7241 29.4167 20.7085 29.3927 20.7447C27.1223 24.107 20.5477 26.2042 13.7591 26.2042C8.96072 26.2042 3.79771 24.66 1.77635 21.7115C1.75645 21.6843 1.73655 21.6959 1.74867 21.7273C3.63171 25.755 9.3444 27.9552 16.4016 27.9552ZM12.3428 21.2735C4.61669 21.2735 0.97366 17.6523 0.31282 15.181C0.304671 15.1453 0.28125 15.1531 0.28125 15.1853C0.28125 16.0172 0.363993 17.0908 0.506351 17.8034C0.574263 18.1503 0.854796 18.6947 1.26609 19.1286C3.13694 21.091 7.80122 23.8409 15.879 23.8409C26.8847 23.8409 29.4011 20.1515 29.915 18.9383C30.2824 18.0706 30.4728 16.5025 30.4728 15.1853C30.4728 14.8666 30.4649 14.612 30.4529 14.362C30.4529 14.3215 30.4296 14.3182 30.4215 14.3577C29.8715 17.3264 20.4684 21.2735 12.3428 21.2735ZM1.73655 8.67075C1.29384 9.55492 0.803109 11.0466 0.657226 11.8186C0.593279 12.1494 0.620517 12.3082 0.735784 12.5551C1.66181 14.5323 6.34584 17.6958 17.2718 17.6958C23.9375 17.6958 29.1156 16.0479 29.9545 13.0406C30.1089 12.4869 30.1172 11.9024 29.9188 11.1148C29.6971 10.2347 29.2818 9.2084 28.9303 8.48774C28.9187 8.46424 28.8983 8.46771 28.9024 8.49549C29.033 12.4399 18.1026 14.982 12.5877 14.982C6.61397 14.982 1.63024 12.5868 1.63024 9.56246C1.63024 9.27187 1.69001 8.98121 1.7646 8.67873C1.77209 8.65109 1.74859 8.64651 1.73655 8.67075ZM25.3461 3.82786C25.4095 3.9279 25.4411 4.03467 25.4411 4.17837C25.4411 5.86559 20.3098 8.85036 12.1415 8.85036C6.13968 8.85036 5.01601 6.60975 5.01601 5.18482C5.01601 4.67546 5.21013 4.15428 5.63765 3.62498C5.661 3.5935 5.64117 3.58139 5.61423 3.60481C4.83452 4.26976 4.1181 5.01799 3.48964 5.82569C3.18936 6.20767 3.00295 6.54606 3.00295 6.7488C3.00295 9.70173 10.3607 11.8427 17.2403 11.8427C24.5708 11.8427 27.8423 9.43456 27.8423 7.31822C27.8423 6.56187 27.5497 6.12034 26.8013 5.26432C26.3155 4.70745 25.8559 4.25403 25.3695 3.80769C25.3461 3.78819 25.3297 3.80407 25.3461 3.82786ZM23.0988 2.14101C20.8365 0.776375 18.2093 0 15.3771 0C12.525 0 9.81876 0.80349 7.54829 2.20426C6.86726 2.62606 6.48394 2.96408 6.48394 3.3986C6.48394 4.67945 9.4585 6.05665 14.7357 6.05665C19.9582 6.05665 24.0089 4.54816 24.0089 3.09612C24.0089 2.74952 23.7079 2.50704 23.0988 2.14101Z" fill="#00A8E0"/>
</g>
</g>
</g>
</g>
</g>
</g>
</g>
</g>
</g>
<defs>
<filter id="filter0_d_0_1" x="-63" y="-2783" width="344" height="5477.2" filterUnits="userSpaceOnUse" color-interpolation-filters="sRGB">
<feFlood flood-opacity="0" result="BackgroundImageFix"/>
<feColorMatrix in="SourceAlpha" type="matrix" values="0 0 0 0 0 0 0 0 0 0 0 0 0 0 0 0 0 0 127 0" result="hardAlpha"/>
<feOffset dy="4"/>
<feGaussianBlur stdDeviation="6"/>
<feComposite in2="hardAlpha" operator="out"/>
<feColorMatrix type="matrix" values="0 0 0 0 0 0 0 0 0 0 0 0 0 0 0 0 0 0 0.04 0"/>
<feBlend mode="normal" in2="BackgroundImageFix" result="effect1_dropShadow_0_1"/>
<feBlend mode="normal" in="SourceGraphic" in2="effect1_dropShadow_0_1" result="shape"/>
</filter>
<clipPath id="clip0_0_1">
<rect width="320" height="7183.2" fill="white" transform="translate(-51 -3217)"/>
</clipPath>
<clipPath id="clip1_0_1">
<rect width="73.438" height="30.3974" fill="white" transform="translate(0.28125)"/>
</clipPath>
</defs>
</svg>
