<svg width="96" height="23" viewBox="0 0 96 23" fill="none" xmlns="http://www.w3.org/2000/svg">
<g id="svg2008">
<path id="path3209" d="M70.0765 5.23771C70.0766 5.39252 70.047 5.54584 69.9895 5.68889C69.9319 5.83195 69.8476 5.96193 69.7412 6.07143C69.6348 6.18093 69.5084 6.26779 69.3694 6.32706C69.2304 6.38632 69.0813 6.41682 68.9308 6.41682C68.7803 6.41682 68.6313 6.38632 68.4923 6.32706C68.3532 6.26779 68.2269 6.18093 68.1205 6.07143C68.0141 5.96193 67.9297 5.83195 67.8722 5.68889C67.8147 5.54584 67.7851 5.39252 67.7852 5.23771C67.7851 5.08289 67.8147 4.92958 67.8722 4.78652C67.9297 4.64347 68.0141 4.51348 68.1205 4.40398C68.2269 4.29448 68.3532 4.20762 68.4923 4.14836C68.6313 4.0891 68.7803 4.05859 68.9308 4.05859C69.0813 4.05859 69.2304 4.0891 69.3694 4.14836C69.5084 4.20762 69.6348 4.29448 69.7412 4.40398C69.8476 4.51348 69.9319 4.64347 69.9895 4.78652C70.047 4.92958 70.0766 5.08289 70.0765 5.23771Z" fill="#999B9E"/>
<path id="rect3211" d="M90.4474 10.4141H87.5312V13.3978H90.4474V10.4141Z" fill="#999B9E"/>
<path id="rect3213" d="M32.6115 10.4141H29.6953V13.3978H32.6115V10.4141Z" fill="#999B9E"/>
<path id="rect3215" d="M23.8654 10.4141H20.9492V13.3978H23.8654V10.4141Z" fill="#999B9E"/>
<path id="rect3217" d="M15.2521 10.4141H12.3359V13.3978H15.2521V10.4141Z" fill="#999B9E"/>
<path id="rect3219" d="M6.33024 10.4141H3.41406V13.3978H6.33024V10.4141Z" fill="#999B9E"/>
<path id="path3221" d="M10.4162 4.45703H10.7622C12.9969 4.45703 14.0384 5.65563 14.4737 8.85206L15.1657 8.82139L15.0733 3.75H3.70191L3.58984 8.82139L4.25575 8.85206C4.37108 7.65347 4.5094 7.00797 4.80958 6.36248C5.34024 5.1637 6.44772 4.45703 7.80886 4.45703H8.29335V15.4907C8.29335 16.6586 8.22419 17.0275 7.94754 17.3041C7.7167 17.5192 7.25521 17.6114 6.72437 17.6114H6.19371V18.349H12.5158V17.6114H11.9819C11.4545 17.6114 10.9897 17.519 10.7623 17.3041C10.4855 17.0275 10.4163 16.6585 10.4163 15.4907V4.45703" fill="#ED008C"/>
<path id="path3223" d="M40.498 18.348L44.1824 5.45879V15.5734C44.1824 16.6773 44.1198 17.0652 43.8699 17.3336C43.6824 17.5424 43.2477 17.6321 42.7657 17.6321H42.5783V18.348H47.7862V17.6321H47.5152C47.0361 17.6321 46.5987 17.5426 46.4113 17.3336C46.1611 17.0652 46.0987 16.6773 46.0987 15.5734V6.95072C46.0987 5.8467 46.1611 5.42902 46.4113 5.16055C46.6195 4.98156 47.0361 4.86212 47.5152 4.86212H47.7862V4.17578H43.745L40.7035 14.5887L37.7276 4.17578H33.7072V4.86212H34.082C35.1862 4.86212 35.3944 5.10083 35.3944 6.53304V14.7379C35.3944 16.0506 35.332 16.5878 35.1444 16.9757C34.9362 17.3636 34.4957 17.6321 34.0403 17.6321H33.707V18.348H37.9981V17.6321H37.7274C37.1859 17.6321 36.7483 17.4231 36.4954 17.0055C36.2484 16.5878 36.186 16.1999 36.186 14.7379V5.45897L39.8492 18.3482H40.498" fill="#999B9E"/>
<path id="path3225" d="M52.2624 8.26562C49.6794 8.26562 47.9922 10.2945 47.9922 13.4871C47.9922 16.5603 49.6794 18.6489 52.1973 18.6489C54.7383 18.6489 56.4257 16.5603 56.4257 13.4574C56.4257 10.384 54.7383 8.26562 52.2624 8.26562ZM52.1792 8.95178C52.9262 8.95178 53.5718 9.42919 53.9259 10.2348C54.2592 10.9807 54.405 11.9952 54.405 13.4572C54.405 16.4705 53.6759 17.9622 52.1971 17.9622C50.721 17.9622 50.0096 16.4703 50.0096 13.4272C50.0096 11.995 50.1583 10.9807 50.4916 10.2348C50.8222 9.45914 51.4917 8.95178 52.1792 8.95178Z" fill="#999B9E"/>
<path id="path3227" d="M59.8879 4.02734L56.9297 4.17655V4.83295H57.0725C57.9476 4.83295 58.138 5.13137 58.138 6.53363V16.2304C58.138 17.4834 58.0964 17.8118 57.9298 18.3488H58.6173C59.1349 17.4834 59.2629 17.3344 59.4713 17.3344C59.5725 17.3344 59.6735 17.3642 59.8225 17.5134C60.846 18.3488 61.2834 18.5277 62.2209 18.5277C64.4675 18.5277 66.0925 16.3497 66.0925 13.2467C66.0925 10.3227 64.5896 8.35358 62.3429 8.35358C61.1764 8.35358 60.3253 8.92047 59.8879 9.93482V4.02734ZM62.0483 9.09946C63.3847 9.09946 64.0719 10.5317 64.0719 13.3362C64.0719 16.2899 63.3637 17.8116 62.0096 17.8116C60.5098 17.8116 59.7209 16.26 59.7209 13.4257C59.7209 11.9935 59.9087 11.0091 60.3461 10.263C60.7388 9.54709 61.4085 9.09946 62.0483 9.09946Z" fill="#999B9E"/>
<path id="path3229" d="M69.9482 8.41406L66.9098 8.59304V9.24943H67.139C68.0108 9.24943 68.1985 9.54785 68.1985 10.9203V15.9627C68.1985 17.3354 68.011 17.6636 67.139 17.6636H66.8086V18.3495H71.3441V17.6636H71.0166C70.1387 17.6636 69.9484 17.365 69.9484 15.9627V8.41406" fill="#999B9E"/>
<path id="path3231" d="M75.2165 4.02734L72.1781 4.17655V4.83295H72.4046C73.2795 4.83295 73.4669 5.13137 73.4669 6.53363V15.9617C73.4669 17.3642 73.2795 17.6626 72.4046 17.6626H72.0742V18.3486H76.6122V17.6626H76.2789C75.401 17.6626 75.2165 17.364 75.2165 15.9617V4.02734Z" fill="#999B9E"/>
<path id="path3233" d="M84.901 13.3975C84.7996 10.2348 83.2997 8.26562 81.0323 8.26562C78.8419 8.26562 77.2617 10.4138 77.2617 13.3975C77.2617 16.5899 78.8211 18.6487 81.2376 18.6487C82.7999 18.6487 83.8831 17.8132 84.7789 15.9633L84.1541 15.6351C83.425 17.1866 82.6959 17.8132 81.5709 17.8132C79.9253 17.8132 79.2201 16.5006 79.199 13.3975H84.901ZM79.22 12.6514C79.2379 10.4138 79.9637 9.0115 81.1333 9.0115C82.2998 9.0115 82.9871 10.384 82.9664 12.6514H79.22Z" fill="#999B9E"/>
<g id="g3235">
<g id="g3237">
<path id="path3239" d="M91.5414 8.01953C91.7174 8.01953 91.8892 8.06473 92.0568 8.15531C92.2245 8.24589 92.355 8.3755 92.4484 8.54395C92.5422 8.71241 92.5889 8.88812 92.5889 9.07109C92.5889 9.25225 92.5428 9.42634 92.4504 9.59334C92.3585 9.76052 92.229 9.89031 92.063 9.9827C91.8966 10.0751 91.7228 10.1214 91.5412 10.1214C91.3596 10.1214 91.1858 10.0753 91.0194 9.9827C90.8532 9.89031 90.7236 9.7607 90.6312 9.59334C90.5385 9.42634 90.4922 9.25225 90.4922 9.07109C90.4922 8.88812 90.5391 8.71241 90.6332 8.54395C90.7272 8.3755 90.8581 8.24571 91.0254 8.15531C91.1938 8.06473 91.3656 8.01953 91.5414 8.01953ZM91.5414 8.19452C91.3944 8.19452 91.251 8.23228 91.1119 8.30797C90.9727 8.38367 90.8637 8.49149 90.7849 8.63199C90.7064 8.77249 90.6673 8.91898 90.6673 9.07091C90.6673 9.22212 90.7058 9.36698 90.7831 9.50566C90.8603 9.64434 90.9683 9.75235 91.107 9.82986C91.2459 9.90737 91.3907 9.94603 91.5414 9.94603C91.6924 9.94603 91.8369 9.90737 91.9757 9.82986C92.1144 9.75253 92.2221 9.64453 92.2989 9.50566C92.3757 9.36698 92.4142 9.22212 92.4142 9.07091C92.4142 8.91898 92.3751 8.77249 92.2969 8.63199C92.2187 8.49167 92.1099 8.38367 91.9701 8.30797C91.8305 8.23228 91.6877 8.19452 91.5414 8.19452ZM91.0815 9.65088V8.51999H91.4699C91.6022 8.51999 91.6985 8.53052 91.7577 8.55139C91.8173 8.57227 91.8645 8.60876 91.8997 8.66085C91.935 8.71277 91.9527 8.76813 91.9527 8.82658C91.9527 8.90918 91.923 8.98124 91.864 9.04241C91.8053 9.10359 91.727 9.13808 91.6294 9.14552C91.6694 9.16222 91.7012 9.18219 91.7253 9.20542C91.771 9.2499 91.8265 9.32468 91.8923 9.4296L92.03 9.65106H91.8068L91.7063 9.47262C91.6276 9.33303 91.5644 9.24554 91.5168 9.20996C91.4834 9.18364 91.4347 9.17057 91.3708 9.17057H91.2636V9.65106H91.0815V9.65088ZM91.2638 9.01519H91.4858C91.5915 9.01519 91.6638 8.99939 91.7025 8.96762C91.7413 8.93586 91.7603 8.89393 91.7603 8.84165C91.7603 8.80806 91.751 8.77794 91.7324 8.75143C91.7137 8.72493 91.6882 8.70496 91.6549 8.69189C91.6219 8.67882 91.5607 8.67247 91.4715 8.67247H91.2638V9.01519Z" fill="#999B9E"/>
</g>
</g>
</g>
</svg>
